<svg version="1.1" xmlns="http://www.w3.org/2000/svg" xmlns:xlink="http://www.w3.org/1999/xlink" stroke-linecap="round" stroke-linejoin="round" stroke-width="0" fill-rule="evenodd" clip-rule="evenodd" id="KkkoVMO5YSrEjKHCkpR0_bottom" viewBox="0 0 2300 4000" width="2.3in" height="4in" class="w-100 h-100"><defs><style>.KkkoVMO5YSrEjKHCkpR0_fr4 {color: #666666;}
.KkkoVMO5YSrEjKHCkpR0_cu {color: #cccccc;}
.KkkoVMO5YSrEjKHCkpR0_cf {color: #cc9933;}
.KkkoVMO5YSrEjKHCkpR0_sm {color: #004200; opacity: 0.75;}
.KkkoVMO5YSrEjKHCkpR0_ss {color: #ffffff;}
.KkkoVMO5YSrEjKHCkpR0_sp {color: #999999;}
.KkkoVMO5YSrEjKHCkpR0_out {color: #000000;}</style><mask id="qaKeWkgW4oh2tPKvy5Q-_clear-1" fill="#000" stroke="#000"><g><rect x="50" y="20" width="2150" height="3925" fill="#fff"/><path d="M 1600 3931.39 1584.12 3929.83 1568.85 3925.2 1554.78 3917.68 1542.45 3907.55 1532.33 3895.22 1524.8 3881.15 1520.17 3865.88 1518.61 3850 1520.17 3834.12 1524.8 3818.85 1532.33 3804.78 1542.45 3792.45 1554.78 3782.33 1568.85 3774.8 1584.12 3770.17 1600 3768.61 1615.88 3770.17 1631.15 3774.8 1645.22 3782.33 1657.55 3792.45 1667.68 3804.78 1675.2 3818.85 1679.83 3834.12 1681.39 3850 1679.83 3865.88 1675.2 3881.15 1667.68 3895.22 1657.55 3907.55 1645.22 3917.68 1631.15 3925.2 1615.88 3929.83 1600 3931.39"/><path d="M 150 3931.39 134.12 3929.83 118.85 3925.2 104.78 3917.68 92.45 3907.55 82.32 3895.22 74.8 3881.15 70.17 3865.88 68.61 3850 70.17 3834.12 74.8 3818.85 82.32 3804.78 92.45 3792.45 104.78 3782.33 118.85 3774.8 134.12 3770.17 150 3768.61 165.88 3770.17 181.15 3774.8 195.22 3782.33 207.55 3792.45 217.68 3804.78 225.2 3818.85 229.83 3834.12 231.39 3850 229.83 3865.88 225.2 3881.15 217.68 3895.22 207.55 3907.55 195.22 3917.68 181.15 3925.2 165.88 3929.83 150 3931.39"/><path d="M 1900 3641.79 1889.18 3640.37 1879.1 3636.19 1870.45 3629.55 1863.81 3620.89 1859.63 3610.82 1858.21 3600 1859.63 3589.18 1863.81 3579.1 1870.45 3570.45 1879.1 3563.81 1889.18 3559.63 1900 3558.21 1910.82 3559.63 1920.89 3563.81 1929.55 3570.45 1936.19 3579.1 1940.37 3589.18 1941.79 3600 1940.37 3610.82 1936.19 3620.89 1929.55 3629.55 1920.89 3636.19 1910.82 3640.37 1900 3641.79"/><path d="M 105 3618.9 105 3555 168.9 3555 168.06 3563.54 164.11 3576.55 157.69 3588.55 149.07 3599.07 138.55 3607.7 126.55 3614.11 113.54 3618.06 105 3618.9"/><path d="M 296.69 3595.76 257.32 3595.76 245.48 3594.2 234.44 3589.63 224.97 3582.36 217.69 3572.88 213.12 3561.84 211.56 3550 213.12 3538.16 217.69 3527.12 224.97 3517.64 234.44 3510.37 245.48 3505.8 257.32 3504.24 296.69 3504.24 308.54 3505.8 319.57 3510.37 329.05 3517.64 336.32 3527.12 340.89 3538.16 342.45 3550 340.89 3561.84 336.32 3572.88 329.05 3582.36 319.57 3589.63 308.54 3594.2 296.69 3595.76"/><path d="M 2100 3566.4 2089.18 3564.97 2079.1 3560.8 2070.45 3554.16 2063.81 3545.5 2059.63 3535.42 2058.21 3524.61 2059.63 3513.79 2063.81 3503.71 2070.45 3495.06 2079.1 3488.42 2089.18 3484.24 2100 3482.82 2110.82 3484.24 2120.89 3488.42 2129.55 3495.06 2136.19 3503.71 2140.37 3513.79 2141.79 3524.61 2140.37 3535.42 2136.19 3545.5 2129.55 3554.16 2120.89 3560.8 2110.82 3564.97 2100 3566.4"/><path d="M 168.9 3545 105 3545 105 3481.1 113.54 3481.94 126.55 3485.89 138.55 3492.31 149.07 3500.93 157.69 3511.45 164.11 3523.45 168.06 3536.46 168.9 3545"/><path d="M 1900 3491.79 1889.18 3490.37 1879.1 3486.19 1870.45 3479.55 1863.81 3470.9 1859.63 3460.82 1858.21 3450 1859.63 3439.18 1863.81 3429.11 1870.45 3420.45 1879.1 3413.81 1889.18 3409.63 1900 3408.21 1910.82 3409.63 1920.89 3413.81 1929.55 3420.45 1936.19 3429.11 1940.37 3439.18 1941.79 3450 1940.37 3460.82 1936.19 3470.9 1929.55 3479.55 1920.89 3486.19 1910.82 3490.37 1900 3491.79"/><path d="M 2105 3419.77 2105 3379.61 2145.17 3379.61 2144.26 3386.47 2139.69 3397.52 2132.4 3407.01 2122.91 3414.29 2111.86 3418.87 2105 3419.77"/><path d="M 2095 3419.77 2088.14 3418.87 2077.09 3414.29 2067.6 3407.01 2060.31 3397.52 2055.74 3386.47 2054.83 3379.61 2095 3379.61 2095 3419.77"/><path d="M 2095 3369.61 2054.83 3369.61 2055.74 3362.75 2060.31 3351.69 2067.6 3342.2 2077.09 3334.92 2088.14 3330.34 2095 3329.44 2095 3369.61"/><path d="M 2145.17 3369.61 2105 3369.61 2105 3329.44 2111.86 3330.34 2122.91 3334.92 2132.4 3342.2 2139.69 3351.69 2144.26 3362.75 2145.17 3369.61"/><path d="M 1905 3345.17 1905 3305 1945.17 3305 1944.26 3311.86 1939.69 3322.91 1932.4 3332.4 1922.91 3339.69 1911.86 3344.26 1905 3345.17"/><path d="M 1895 3345.17 1888.14 3344.26 1877.09 3339.69 1867.6 3332.4 1860.31 3322.91 1855.74 3311.86 1854.83 3305 1895 3305 1895 3345.17"/><path d="M 1945.17 3295 1905 3295 1905 3254.83 1911.86 3255.74 1922.91 3260.31 1932.4 3267.6 1939.69 3277.09 1944.26 3288.14 1945.17 3295"/><path d="M 1895 3295 1854.83 3295 1855.74 3288.14 1860.31 3277.09 1867.6 3267.6 1877.09 3260.31 1888.14 3255.74 1895 3254.83 1895 3295"/><path d="M 2100 3266.4 2089.18 3264.97 2079.1 3260.8 2070.45 3254.16 2063.81 3245.5 2059.63 3235.42 2058.21 3224.61 2059.63 3213.79 2063.81 3203.71 2070.45 3195.06 2079.1 3188.42 2089.18 3184.24 2100 3182.82 2110.82 3184.24 2120.89 3188.42 2129.55 3195.06 2136.19 3203.71 2140.37 3213.79 2141.79 3224.61 2140.37 3235.42 2136.19 3245.5 2129.55 3254.16 2120.89 3260.8 2110.82 3264.97 2100 3266.4"/><path d="M 1900 3191.79 1889.18 3190.37 1879.1 3186.19 1870.45 3179.55 1863.81 3170.9 1859.63 3160.82 1858.21 3150 1859.63 3139.18 1863.81 3129.11 1870.45 3120.45 1879.1 3113.81 1889.18 3109.63 1900 3108.21 1910.82 3109.63 1920.89 3113.81 1929.55 3120.45 1936.19 3129.11 1940.37 3139.18 1941.79 3150 1940.37 3160.82 1936.19 3170.9 1929.55 3179.55 1920.89 3186.19 1910.82 3190.37 1900 3191.79"/><path d="M 2100 3116.4 2089.18 3114.97 2079.1 3110.8 2070.45 3104.16 2063.81 3095.5 2059.63 3085.42 2058.21 3074.61 2059.63 3063.79 2063.81 3053.71 2070.45 3045.06 2079.1 3038.41 2089.18 3034.24 2100 3032.82 2110.82 3034.24 2120.89 3038.41 2129.55 3045.06 2136.19 3053.71 2140.37 3063.79 2141.79 3074.61 2140.37 3085.42 2136.19 3095.5 2129.55 3104.16 2120.89 3110.8 2110.82 3114.97 2100 3116.4"/><path d="M 1905 3045.17 1905 3005 1945.17 3005 1944.26 3011.86 1939.69 3022.91 1932.4 3032.4 1922.91 3039.69 1911.86 3044.26 1905 3045.17"/><path d="M 1895 3045.17 1888.14 3044.26 1877.09 3039.69 1867.6 3032.4 1860.31 3022.91 1855.74 3011.86 1854.83 3005 1895 3005 1895 3045.17"/><path d="M 105 3018.9 105 2955 168.9 2955 168.06 2963.54 164.11 2976.55 157.69 2988.55 149.07 2999.07 138.55 3007.69 126.55 3014.11 113.54 3018.06 105 3018.9"/><path d="M 1945.17 2995 1905 2995 1905 2954.83 1911.86 2955.74 1922.91 2960.31 1932.4 2967.6 1939.69 2977.09 1944.26 2988.14 1945.17 2995"/><path d="M 1895 2995 1854.83 2995 1855.74 2988.14 1860.31 2977.09 1867.6 2967.6 1877.09 2960.31 1888.14 2955.74 1895 2954.83 1895 2995"/><path d="M 296.69 2995.76 257.32 2995.76 245.48 2994.2 234.44 2989.63 224.97 2982.36 217.69 2972.88 213.12 2961.84 211.56 2950 213.12 2938.16 217.69 2927.12 224.97 2917.64 234.44 2910.37 245.48 2905.8 257.32 2904.24 296.69 2904.24 308.54 2905.8 319.57 2910.37 329.05 2917.64 336.32 2927.12 340.89 2938.16 342.45 2950 340.89 2961.84 336.32 2972.88 329.05 2982.36 319.57 2989.63 308.54 2994.2 296.69 2995.76"/><path d="M 2100 2966.4 2089.18 2964.97 2079.1 2960.8 2070.45 2954.16 2063.81 2945.5 2059.63 2935.42 2058.21 2924.61 2059.63 2913.79 2063.81 2903.71 2070.45 2895.06 2079.1 2888.42 2089.18 2884.24 2100 2882.82 2110.82 2884.24 2120.89 2888.42 2129.55 2895.06 2136.19 2903.71 2140.37 2913.79 2141.79 2924.61 2140.37 2935.42 2136.19 2945.5 2129.55 2954.16 2120.89 2960.8 2110.82 2964.97 2100 2966.4"/><path d="M 168.9 2945 105 2945 105 2881.1 113.54 2881.94 126.55 2885.89 138.55 2892.3 149.07 2900.93 157.69 2911.45 164.11 2923.45 168.06 2936.46 168.9 2945"/><path d="M 1900 2891.79 1889.18 2890.37 1879.1 2886.19 1870.45 2879.55 1863.81 2870.89 1859.63 2860.82 1858.21 2850 1859.63 2839.18 1863.81 2829.1 1870.45 2820.45 1879.1 2813.81 1889.18 2809.63 1900 2808.21 1910.82 2809.63 1920.89 2813.81 1929.55 2820.45 1936.19 2829.1 1940.37 2839.18 1941.79 2850 1940.37 2860.82 1936.19 2870.89 1929.55 2879.55 1920.89 2886.19 1910.82 2890.37 1900 2891.79"/><path d="M 1086.89 2820.37 1086.89 2803.43 1103.84 2803.43 1103.08 2807.2 1098.11 2814.65 1090.67 2819.62 1086.89 2820.37"/><path d="M 1076.89 2820.37 1073.11 2819.62 1065.67 2814.65 1060.7 2807.2 1059.94 2803.43 1076.89 2803.43 1076.89 2820.37"/><path d="M 1103.84 2793.43 1086.89 2793.43 1086.89 2776.48 1090.67 2777.23 1098.11 2782.2 1103.08 2789.65 1103.84 2793.43"/><path d="M 1076.89 2793.43 1059.94 2793.43 1060.7 2789.65 1065.67 2782.2 1073.11 2777.23 1076.89 2776.48 1076.89 2793.43"/><path d="M 2100 2816.4 2089.18 2814.97 2079.1 2810.8 2070.45 2804.16 2063.81 2795.5 2059.63 2785.42 2058.21 2774.61 2059.63 2763.79 2063.81 2753.71 2070.45 2745.06 2079.1 2738.42 2089.18 2734.24 2100 2732.82 2110.82 2734.24 2120.89 2738.42 2129.55 2745.06 2136.19 2753.71 2140.37 2763.79 2141.79 2774.61 2140.37 2785.42 2136.19 2795.5 2129.55 2804.16 2120.89 2810.8 2110.82 2814.97 2100 2816.4"/><path d="M 1905 2745.17 1905 2705 1945.17 2705 1944.26 2711.86 1939.69 2722.91 1932.4 2732.4 1922.91 2739.69 1911.86 2744.26 1905 2745.17"/><path d="M 1895 2745.17 1888.14 2744.26 1877.09 2739.69 1867.6 2732.4 1860.31 2722.91 1855.74 2711.86 1854.83 2705 1895 2705 1895 2745.17"/><path d="M 1945.17 2695 1905 2695 1905 2654.83 1911.86 2655.74 1922.91 2660.31 1932.4 2667.6 1939.69 2677.09 1944.26 2688.14 1945.17 2695"/><path d="M 1895 2695 1854.83 2695 1855.74 2688.14 1860.31 2677.09 1867.6 2667.6 1877.09 2660.31 1888.14 2655.74 1895 2654.83 1895 2695"/><path d="M 1489.84 2667.22 1489.84 2650.28 1506.79 2650.28 1506.04 2654.06 1501.06 2661.5 1493.62 2666.47 1489.84 2667.22"/><path d="M 1479.84 2667.22 1476.06 2666.47 1468.62 2661.5 1463.65 2654.06 1462.9 2650.28 1479.84 2650.28 1479.84 2667.22"/><path d="M 1506.79 2640.28 1489.84 2640.28 1489.84 2623.33 1493.62 2624.08 1501.06 2629.05 1506.04 2636.5 1506.79 2640.28"/><path d="M 1479.84 2640.28 1462.9 2640.28 1463.65 2636.5 1468.62 2629.05 1476.06 2624.08 1479.84 2623.33 1479.84 2640.28"/><path d="M 2100 2666.4 2089.18 2664.97 2079.1 2660.8 2070.45 2654.16 2063.81 2645.5 2059.63 2635.42 2058.21 2624.61 2059.63 2613.79 2063.81 2603.71 2070.45 2595.06 2079.1 2588.41 2089.18 2584.24 2100 2582.82 2110.82 2584.24 2120.89 2588.41 2129.55 2595.06 2136.19 2603.71 2140.37 2613.79 2141.79 2624.61 2140.37 2635.42 2136.19 2645.5 2129.55 2654.16 2120.89 2660.8 2110.82 2664.97 2100 2666.4"/><path d="M 949.29 2596.95 949.29 2580 966.24 2580 965.49 2583.78 960.51 2591.22 953.07 2596.19 949.29 2596.95"/><path d="M 939.29 2596.95 935.51 2596.19 928.07 2591.22 923.1 2583.78 922.34 2580 939.29 2580 939.29 2596.95"/><path d="M 966.24 2570 922.34 2570 923.1 2566.22 928.07 2558.78 935.51 2553.81 941.83 2552.55 941.83 2547.45 935.51 2546.2 928.07 2541.22 923.1 2533.78 922.34 2530 966.24 2530 965.49 2533.78 960.51 2541.22 953.07 2546.2 946.75 2547.45 946.75 2552.55 953.07 2553.81 960.51 2558.78 965.49 2566.22 966.24 2570"/><path d="M 1900 2591.79 1889.18 2590.37 1879.1 2586.19 1870.45 2579.55 1863.81 2570.89 1859.63 2560.82 1858.21 2550 1859.63 2539.18 1863.81 2529.1 1870.45 2520.45 1879.1 2513.81 1889.18 2509.63 1900 2508.21 1910.82 2509.63 1920.89 2513.81 1929.55 2520.45 1936.19 2529.1 1940.37 2539.18 1941.79 2550 1940.37 2560.82 1936.19 2570.89 1929.55 2579.55 1920.89 2586.19 1910.82 2590.37 1900 2591.79"/><path d="M 966.24 2520 949.29 2520 949.29 2503.05 953.07 2503.8 960.51 2508.78 965.49 2516.22 966.24 2520"/><path d="M 939.29 2520 922.34 2520 923.1 2516.22 928.07 2508.78 935.51 2503.8 939.29 2503.05 939.29 2520"/><path d="M 1350 2496.95 1350 2480 1366.95 2480 1366.19 2483.78 1361.22 2491.22 1353.78 2496.2 1350 2496.95"/><path d="M 1340 2496.95 1336.22 2496.2 1328.78 2491.22 1323.8 2483.78 1323.05 2480 1340 2480 1340 2496.95"/><path d="M 1366.95 2470 1350 2470 1350 2453.05 1353.78 2453.8 1361.22 2458.78 1366.19 2466.22 1366.95 2470"/><path d="M 1340 2470 1323.05 2470 1323.8 2466.22 1328.78 2458.78 1336.22 2453.8 1340 2453.05 1340 2470"/><path d="M 2100 2516.4 2089.18 2514.97 2079.1 2510.8 2070.45 2504.16 2063.81 2495.5 2059.63 2485.42 2058.21 2474.61 2059.63 2463.79 2063.81 2453.71 2070.45 2445.06 2079.1 2438.42 2089.18 2434.24 2100 2432.82 2110.82 2434.24 2120.89 2438.42 2129.55 2445.06 2136.19 2453.71 2140.37 2463.79 2141.79 2474.61 2140.37 2485.42 2136.19 2495.5 2129.55 2504.16 2120.89 2510.8 2110.82 2514.97 2100 2516.4"/><path d="M 1080 2413.86 1072.78 2412.43 1066.66 2408.34 1064.56 2405.2 1025.44 2405.2 1023.34 2408.34 1017.22 2412.43 1010 2413.86 1002.78 2412.43 996.66 2408.34 992.57 2402.22 991.14 2395 992.57 2387.78 996.66 2381.66 1002.78 2377.57 1010 2376.14 1017.22 2377.57 1023.34 2381.66 1025.44 2384.8 1064.56 2384.8 1066.66 2381.66 1072.78 2377.57 1080 2376.14 1087.22 2377.57 1093.34 2381.66 1097.43 2387.78 1098.86 2395 1097.43 2402.22 1093.34 2408.34 1087.22 2412.43 1080 2413.86"/><path d="M 1905 2445.17 1905 2405 1945.17 2405 1944.26 2411.86 1939.69 2422.91 1932.4 2432.4 1922.91 2439.69 1911.86 2444.26 1905 2445.17"/><path d="M 1895 2445.17 1888.14 2444.26 1877.09 2439.69 1867.6 2432.4 1860.31 2422.91 1855.74 2411.86 1854.83 2405 1895 2405 1895 2445.17"/><path d="M 1945.17 2395 1905 2395 1905 2354.83 1911.86 2355.74 1922.91 2360.31 1932.4 2367.6 1939.69 2377.09 1944.26 2388.14 1945.17 2395"/><path d="M 1895 2395 1854.83 2395 1855.74 2388.14 1860.31 2377.09 1867.6 2367.6 1877.09 2360.31 1888.14 2355.74 1895 2354.83 1895 2395"/><path d="M 355 2450.3 355 2346.93 458.37 2346.93 457.42 2358.94 453.44 2375.54 446.91 2391.3 437.99 2405.86 426.91 2418.83 413.93 2429.92 399.38 2438.83 383.61 2445.37 367.01 2449.35 355 2450.3"/><path d="M 345 2450.3 332.99 2449.35 316.39 2445.37 300.62 2438.83 286.07 2429.92 273.1 2418.83 262.01 2405.86 253.09 2391.3 246.56 2375.54 242.58 2358.94 241.63 2346.93 345 2346.93 345 2450.3"/><path d="M 2105 2369.77 2105 2329.61 2145.17 2329.61 2144.26 2336.47 2139.69 2347.52 2132.4 2357.01 2122.91 2364.29 2111.86 2368.87 2105 2369.77"/><path d="M 2095 2369.77 2088.14 2368.87 2077.09 2364.29 2067.6 2357.01 2060.31 2347.52 2055.74 2336.47 2054.83 2329.61 2095 2329.61 2095 2369.77"/><path d="M 2095 2319.61 2054.83 2319.61 2055.74 2312.75 2060.31 2301.69 2067.6 2292.2 2077.09 2284.92 2088.14 2280.34 2095 2279.44 2095 2319.61"/><path d="M 2145.17 2319.61 2105 2319.61 2105 2279.44 2111.86 2280.34 2122.91 2284.92 2132.4 2292.2 2139.69 2301.69 2144.26 2312.75 2145.17 2319.61"/><path d="M 345 2336.93 241.63 2336.93 242.58 2324.91 246.56 2308.32 253.09 2292.55 262.01 2278 273.1 2265.02 286.07 2253.94 300.62 2245.02 316.39 2238.49 332.99 2234.51 345 2233.56 345 2336.93"/><path d="M 458.37 2336.93 355 2336.93 355 2233.56 367.01 2234.51 383.61 2238.49 399.38 2245.02 413.93 2253.94 426.91 2265.02 437.99 2278 446.91 2292.55 453.44 2308.32 457.42 2324.91 458.37 2336.93"/><path d="M 1900 2291.79 1889.18 2290.37 1879.1 2286.19 1870.45 2279.55 1863.81 2270.9 1859.63 2260.82 1858.21 2250 1859.63 2239.18 1863.81 2229.1 1870.45 2220.45 1879.1 2213.81 1889.18 2209.63 1900 2208.21 1910.82 2209.63 1920.89 2213.81 1929.55 2220.45 1936.19 2229.1 1940.37 2239.18 1941.79 2250 1940.37 2260.82 1936.19 2270.9 1929.55 2279.55 1920.89 2286.19 1910.82 2290.37 1900 2291.79"/><path d="M 940.43 2183.56 940.43 2166.61 957.38 2166.61 956.63 2170.39 951.65 2177.84 944.21 2182.81 940.43 2183.56"/><path d="M 930.43 2183.56 926.65 2182.81 919.21 2177.84 914.24 2170.39 913.49 2166.61 930.43 2166.61 930.43 2183.56"/><path d="M 1371.53 2171.95 1371.53 2155 1388.48 2155 1387.73 2158.78 1382.76 2166.22 1375.31 2171.2 1371.53 2171.95"/><path d="M 1361.53 2171.95 1357.76 2171.2 1350.31 2166.22 1345.34 2158.78 1344.59 2155 1361.53 2155 1361.53 2171.95"/><path d="M 957.38 2156.61 940.43 2156.61 940.43 2139.67 944.21 2140.42 951.65 2145.39 956.63 2152.83 957.38 2156.61"/><path d="M 930.43 2156.61 913.49 2156.61 914.24 2152.83 919.21 2145.39 926.65 2140.42 930.43 2139.67 930.43 2156.61"/><path d="M 2100 2216.4 2089.18 2214.97 2079.1 2210.8 2070.45 2204.16 2063.81 2195.5 2059.63 2185.42 2058.21 2174.61 2059.63 2163.79 2063.81 2153.71 2070.45 2145.06 2079.1 2138.42 2089.18 2134.24 2100 2132.82 2110.82 2134.24 2120.89 2138.42 2129.55 2145.06 2136.19 2153.71 2140.37 2163.79 2141.79 2174.61 2140.37 2185.42 2136.19 2195.5 2129.55 2204.16 2120.89 2210.8 2110.82 2214.97 2100 2216.4"/><path d="M 1388.48 2145 1371.53 2145 1371.53 2128.05 1375.31 2128.8 1382.76 2133.78 1387.73 2141.22 1388.48 2145"/><path d="M 1361.53 2145 1344.59 2145 1345.34 2141.22 1350.31 2133.78 1357.76 2128.8 1361.53 2128.05 1361.53 2145"/><path d="M 1905 2145.17 1905 2105 1945.17 2105 1944.26 2111.86 1939.69 2122.91 1932.4 2132.4 1922.91 2139.69 1911.86 2144.26 1905 2145.17"/><path d="M 1895 2145.17 1888.14 2144.26 1877.09 2139.69 1867.6 2132.4 1860.31 2122.91 1855.74 2111.86 1854.83 2105 1895 2105 1895 2145.17"/><path d="M 1065 2068.86 1057.78 2067.43 1052.3 2063.77 1012.7 2063.77 1007.22 2067.43 1000 2068.86 992.78 2067.43 986.66 2063.34 982.57 2057.22 981.14 2050 982.57 2042.78 986.66 2036.66 992.78 2032.57 1000 2031.14 1007.22 2032.57 1012.7 2036.24 1052.3 2036.24 1057.78 2032.57 1065 2031.14 1072.22 2032.57 1078.34 2036.66 1082.43 2042.78 1083.86 2050 1082.43 2057.22 1078.34 2063.34 1072.22 2067.43 1065 2068.86"/><path d="M 1945.17 2095 1905 2095 1905 2054.83 1911.86 2055.74 1922.91 2060.31 1932.4 2067.6 1939.69 2077.09 1944.26 2088.14 1945.17 2095"/><path d="M 1895 2095 1854.83 2095 1855.74 2088.14 1860.31 2077.09 1867.6 2067.6 1877.09 2060.31 1888.14 2055.74 1895 2054.83 1895 2095"/><path d="M 455 2067.54 455 2035.32 487.22 2035.32 486.59 2040.12 482.81 2049.26 476.79 2057.1 468.94 2063.12 459.81 2066.91 455 2067.54"/><path d="M 445 2067.54 440.19 2066.91 431.06 2063.12 423.21 2057.1 417.19 2049.26 413.41 2040.12 412.78 2035.32 445 2035.32 445 2067.54"/><path d="M 980 2021.95 980 2005 996.95 2005 996.19 2008.78 991.22 2016.22 983.78 2021.19 980 2021.95"/><path d="M 970 2021.95 966.22 2021.19 958.78 2016.22 953.81 2008.78 953.05 2005 970 2005 970 2021.95"/><path d="M 250 2064.16 241.24 2063.01 233.08 2059.63 226.06 2054.25 220.69 2047.24 217.31 2039.08 216.15 2030.31 217.31 2021.55 220.69 2013.39 226.06 2006.38 233.08 2001 241.24 1997.62 250 1996.47 258.76 1997.62 266.92 2001 273.93 2006.38 279.31 2013.39 282.69 2021.55 283.85 2030.31 282.69 2039.08 279.31 2047.24 273.93 2054.25 266.92 2059.63 258.76 2063.01 250 2064.16"/><path d="M 487.22 2025.32 455 2025.32 455 1993.09 459.81 1993.72 468.94 1997.51 476.79 2003.53 482.81 2011.37 486.59 2020.51 487.22 2025.32"/><path d="M 445 2025.32 412.78 2025.32 413.41 2020.51 417.19 2011.37 423.21 2003.53 431.06 1997.51 440.19 1993.72 445 1993.09 445 2025.32"/><path d="M 355 2012.42 355 1980.2 387.23 1980.2 386.59 1985 382.81 1994.14 376.79 2001.98 368.94 2008 359.8 2011.79 355 2012.42"/><path d="M 345 2012.42 340.2 2011.79 331.06 2008 323.21 2001.98 317.19 1994.14 313.41 1985 312.77 1980.2 345 1980.2 345 2012.42"/><path d="M 996.95 1995 980 1995 980 1978.05 983.78 1978.8 991.22 1983.78 996.19 1991.22 996.95 1995"/><path d="M 970 1995 953.05 1995 953.81 1991.22 958.78 1983.78 966.22 1978.8 970 1978.05 970 1995"/><path d="M 971.54 1971.95 971.54 1955 988.48 1955 987.73 1958.78 982.76 1966.22 975.31 1971.19 971.54 1971.95"/><path d="M 961.53 1971.95 957.76 1971.19 950.31 1966.22 945.34 1958.78 944.59 1955 961.53 1955 961.53 1971.95"/><path d="M 1460 1959.02 1452.78 1957.58 1446.66 1953.5 1444.56 1950.35 1341.99 1950.35 1339.99 1953.34 1333.87 1957.43 1326.65 1958.86 1319.44 1957.43 1313.32 1953.34 1309.23 1947.22 1307.79 1940 1309.23 1932.78 1313.32 1926.66 1319.44 1922.57 1326.65 1921.14 1333.87 1922.57 1339.99 1926.66 1342.2 1929.96 1444.56 1929.96 1446.66 1926.82 1452.78 1922.73 1460 1921.3 1467.22 1922.73 1473.34 1926.82 1477.43 1932.94 1478.86 1940.16 1477.43 1947.38 1473.34 1953.5 1467.22 1957.58 1460 1959.02"/><path d="M 387.23 1970.2 355 1970.2 355 1937.97 359.8 1938.6 368.94 1942.39 376.79 1948.41 382.81 1956.25 386.59 1965.39 387.23 1970.2"/><path d="M 345 1970.2 312.77 1970.2 313.41 1965.39 317.19 1956.25 323.21 1948.41 331.06 1942.39 340.2 1938.6 345 1937.97 345 1970.2"/><path d="M 988.48 1945 971.54 1945 971.54 1928.05 975.31 1928.8 982.76 1933.78 987.73 1941.22 988.48 1945"/><path d="M 961.53 1945 944.59 1945 945.34 1941.22 950.31 1933.78 957.76 1928.8 961.53 1928.05 961.53 1945"/><path d="M 450 1974.01 441.24 1972.85 433.08 1969.47 426.06 1964.09 420.69 1957.08 417.3 1948.92 416.15 1940.16 417.3 1931.4 420.69 1923.23 426.06 1916.22 433.08 1910.84 441.24 1907.46 450 1906.31 458.76 1907.46 466.92 1910.84 473.94 1916.22 479.31 1923.23 482.7 1931.4 483.85 1940.16 482.7 1948.92 479.31 1957.08 473.94 1964.09 466.92 1969.47 458.76 1972.85 450 1974.01"/><path d="M 250 1974.01 241.24 1972.85 233.08 1969.47 226.06 1964.09 220.69 1957.08 217.31 1948.92 216.15 1940.16 217.31 1931.4 220.69 1923.23 226.06 1916.22 233.08 1910.84 241.24 1907.46 250 1906.31 258.76 1907.46 266.92 1910.84 273.93 1916.22 279.31 1923.23 282.69 1931.4 283.85 1940.16 282.69 1948.92 279.31 1957.08 273.93 1964.09 266.92 1969.47 258.76 1972.85 250 1974.01"/><path d="M 1775 2068.86 1767.78 2067.43 1761.66 2063.34 1757.57 2057.22 1756.14 2050 1757.57 2042.78 1761.66 2036.66 1764.8 2034.56 1764.8 1940.44 1761.66 1938.34 1757.57 1932.22 1756.14 1925 1757.57 1917.78 1761.66 1911.66 1767.78 1907.57 1775 1906.14 1782.22 1907.57 1788.34 1911.66 1792.43 1917.78 1793.86 1925 1792.43 1932.22 1788.34 1938.34 1785.2 1940.44 1785.2 2034.56 1788.34 2036.66 1792.43 2042.78 1793.86 2050 1792.43 2057.22 1788.34 2063.34 1782.22 2067.43 1775 2068.86"/><path d="M 350 1918.89 341.24 1917.73 333.08 1914.35 326.07 1908.97 320.69 1901.96 317.3 1893.8 316.15 1885.04 317.3 1876.28 320.69 1868.11 326.07 1861.1 333.08 1855.73 341.24 1852.34 350 1851.19 358.76 1852.34 366.92 1855.73 373.94 1861.1 379.31 1868.11 382.69 1876.28 383.85 1885.04 382.69 1893.8 379.31 1901.96 373.94 1908.97 366.92 1914.35 358.76 1917.73 350 1918.89"/><path d="M 869.57 1846.95 869.57 1830 886.51 1830 885.76 1833.78 880.79 1841.22 873.35 1846.19 869.57 1846.95"/><path d="M 859.57 1846.95 855.79 1846.19 848.34 1841.22 843.37 1833.78 842.62 1830 859.57 1830 859.57 1846.95"/><path d="M 1423.11 1845.37 1423.11 1828.43 1440.06 1828.43 1439.3 1832.2 1434.33 1839.65 1426.89 1844.62 1423.11 1845.37"/><path d="M 1413.11 1845.37 1409.33 1844.62 1401.89 1839.65 1396.92 1832.2 1396.16 1828.43 1413.11 1828.43 1413.11 1845.37"/><path d="M 450 1883.85 441.24 1882.69 433.08 1879.31 426.06 1873.93 420.69 1866.92 417.3 1858.76 416.15 1850 417.3 1841.24 420.69 1833.08 426.06 1826.06 433.08 1820.69 441.24 1817.3 450 1816.15 458.76 1817.3 466.92 1820.69 473.94 1826.06 479.31 1833.08 482.7 1841.24 483.85 1850 482.7 1858.76 479.31 1866.92 473.94 1873.93 466.92 1879.31 458.76 1882.69 450 1883.85"/><path d="M 250 1883.85 241.24 1882.69 233.08 1879.31 226.06 1873.93 220.69 1866.92 217.31 1858.76 216.15 1850 217.31 1841.24 220.69 1833.08 226.06 1826.06 233.08 1820.69 241.24 1817.3 250 1816.15 258.76 1817.3 266.92 1820.69 273.93 1826.06 279.31 1833.08 282.69 1841.24 283.85 1850 282.69 1858.76 279.31 1866.92 273.93 1873.93 266.92 1879.31 258.76 1882.69 250 1883.85"/><path d="M 600 1918.86 592.78 1917.43 586.66 1913.34 582.57 1907.22 581.14 1900 582.57 1892.78 586.66 1886.66 589.8 1884.56 589.8 1840.44 586.66 1838.34 582.57 1832.22 581.14 1825 582.57 1817.78 586.66 1811.66 592.78 1807.57 600 1806.14 607.22 1807.57 613.34 1811.66 617.43 1817.78 618.86 1825 617.43 1832.22 613.34 1838.34 610.2 1840.44 610.2 1884.56 613.34 1886.66 617.43 1892.78 618.86 1900 617.43 1907.22 613.34 1913.34 607.22 1917.43 600 1918.86"/><path d="M 886.51 1820 869.57 1820 869.57 1803.05 873.35 1803.8 880.79 1808.78 885.76 1816.22 886.51 1820"/><path d="M 859.57 1820 842.62 1820 843.37 1816.22 848.34 1808.78 855.79 1803.8 859.57 1803.05 859.57 1820"/><path d="M 1440.06 1818.43 1423.11 1818.43 1423.11 1801.48 1426.89 1802.23 1434.33 1807.2 1439.3 1814.65 1440.06 1818.43"/><path d="M 1413.11 1818.43 1396.16 1818.43 1396.92 1814.65 1401.89 1807.2 1409.33 1802.23 1413.11 1801.48 1413.11 1818.43"/><path d="M 355 1832.11 355 1799.88 387.23 1799.88 386.59 1804.69 382.81 1813.82 376.79 1821.67 368.94 1827.69 359.8 1831.47 355 1832.11"/><path d="M 345 1832.11 340.2 1831.47 331.06 1827.69 323.21 1821.67 317.19 1813.82 313.41 1804.69 312.77 1799.88 345 1799.88 345 1832.11"/><path d="M 387.23 1789.88 355 1789.88 355 1757.66 359.8 1758.29 368.94 1762.07 376.79 1768.09 382.81 1775.94 386.59 1785.08 387.23 1789.88"/><path d="M 345 1789.88 312.77 1789.88 313.41 1785.08 317.19 1775.94 323.21 1768.09 331.06 1762.07 340.2 1758.29 345 1757.66 345 1789.88"/><path d="M 705 1771.95 705 1755 721.95 1755 721.19 1758.78 716.22 1766.22 708.78 1771.2 705 1771.95"/><path d="M 695 1771.95 691.22 1771.2 683.78 1766.22 678.81 1758.78 678.05 1755 695 1755 695 1771.95"/><path d="M 1340.43 1746.95 1340.43 1730 1357.38 1730 1356.63 1733.78 1351.66 1741.22 1344.21 1746.19 1340.43 1746.95"/><path d="M 1330.43 1746.95 1326.65 1746.19 1319.21 1741.22 1314.24 1733.78 1313.49 1730 1330.43 1730 1330.43 1746.95"/><path d="M 450 1793.69 441.24 1792.54 433.08 1789.16 426.06 1783.78 420.69 1776.77 417.3 1768.6 416.15 1759.84 417.3 1751.08 420.69 1742.92 426.06 1735.91 433.08 1730.53 441.24 1727.15 450 1725.99 458.76 1727.15 466.92 1730.53 473.94 1735.91 479.31 1742.92 482.7 1751.08 483.85 1759.84 482.7 1768.6 479.31 1776.77 473.94 1783.78 466.92 1789.16 458.76 1792.54 450 1793.69"/><path d="M 250 1793.69 241.24 1792.54 233.08 1789.16 226.06 1783.78 220.69 1776.77 217.31 1768.6 216.15 1759.84 217.31 1751.08 220.69 1742.92 226.06 1735.91 233.08 1730.53 241.24 1727.15 250 1725.99 258.76 1727.15 266.92 1730.53 273.93 1735.91 279.31 1742.92 282.69 1751.08 283.85 1759.84 282.69 1768.6 279.31 1776.77 273.93 1783.78 266.92 1789.16 258.76 1792.54 250 1793.69"/><path d="M 355 1741.95 355 1709.72 387.23 1709.72 386.59 1714.53 382.81 1723.67 376.79 1731.51 368.94 1737.53 359.8 1741.32 355 1741.95"/><path d="M 345 1741.95 340.2 1741.32 331.06 1737.53 323.21 1731.51 317.19 1723.67 313.41 1714.53 312.77 1709.72 345 1709.72 345 1741.95"/><path d="M 721.95 1745 678.05 1745 678.81 1741.22 683.78 1733.78 691.22 1728.8 697.54 1727.55 697.54 1722.45 691.22 1721.19 683.78 1716.22 678.81 1708.78 678.05 1705 721.95 1705 721.19 1708.78 716.22 1716.22 708.78 1721.19 702.46 1722.45 702.46 1727.55 708.78 1728.8 716.22 1733.78 721.19 1741.22 721.95 1745"/><path d="M 1357.38 1720 1340.43 1720 1340.43 1703.05 1344.21 1703.8 1351.66 1708.78 1356.63 1716.22 1357.38 1720"/><path d="M 1330.43 1720 1313.49 1720 1314.24 1716.22 1319.21 1708.78 1326.65 1703.8 1330.43 1703.05 1330.43 1720"/><path d="M 1423.7 1695.37 1423.7 1678.42 1440.65 1678.42 1439.9 1682.2 1434.92 1689.65 1427.48 1694.62 1423.7 1695.37"/><path d="M 1413.7 1695.37 1409.92 1694.62 1402.48 1689.65 1397.51 1682.2 1396.75 1678.42 1413.7 1678.42 1413.7 1695.37"/><path d="M 387.23 1699.72 355 1699.72 355 1667.5 359.8 1668.13 368.94 1671.92 376.79 1677.94 382.81 1685.78 386.59 1694.92 387.23 1699.72"/><path d="M 345 1699.72 312.77 1699.72 313.41 1694.92 317.19 1685.78 323.21 1677.94 331.06 1671.92 340.2 1668.13 345 1667.5 345 1699.72"/><path d="M 721.95 1695 678.05 1695 678.81 1691.22 683.78 1683.78 691.22 1678.8 697.54 1677.55 697.54 1672.45 691.22 1671.2 683.78 1666.22 678.81 1658.78 678.05 1655 721.95 1655 721.19 1658.78 716.22 1666.22 708.78 1671.2 702.46 1672.45 702.46 1677.55 708.78 1678.8 716.22 1683.78 721.19 1691.22 721.95 1695"/><path d="M 1440.65 1668.42 1423.7 1668.42 1423.7 1651.48 1427.48 1652.23 1434.92 1657.2 1439.9 1664.65 1440.65 1668.42"/><path d="M 1413.7 1668.42 1396.75 1668.42 1397.51 1664.65 1402.48 1657.2 1409.92 1652.23 1413.7 1651.48 1413.7 1668.42"/><path d="M 550 1918.86 542.78 1917.43 536.66 1913.34 532.57 1907.22 531.14 1900 532.57 1892.78 536.66 1886.66 539.8 1884.56 539.8 1773.91 469.14 1703.24 416.44 1703.24 416.44 1636.13 483.56 1636.13 483.56 1688.83 557.21 1762.48 559.42 1765.78 560.2 1769.69 560.2 1884.56 563.34 1886.66 567.43 1892.78 568.86 1900 567.43 1907.22 563.34 1913.34 557.22 1917.43 550 1918.86"/><path d="M 250 1703.53 241.24 1702.38 233.08 1699 226.06 1693.62 220.69 1686.61 217.31 1678.45 216.15 1669.69 217.31 1660.92 220.69 1652.76 226.06 1645.75 233.08 1640.37 241.24 1636.99 250 1635.84 258.76 1636.99 266.92 1640.37 273.93 1645.75 279.31 1652.76 282.69 1660.92 283.85 1669.69 282.69 1678.45 279.31 1686.61 273.93 1693.62 266.92 1699 258.76 1702.38 250 1703.53"/><path d="M 721.95 1645 705 1645 705 1628.05 708.78 1628.81 716.22 1633.78 721.19 1641.22 721.95 1645"/><path d="M 695 1645 678.05 1645 678.81 1641.22 683.78 1633.78 691.22 1628.81 695 1628.05 695 1645"/><path d="M 355 1651.79 355 1619.57 387.23 1619.57 386.59 1624.37 382.81 1633.51 376.79 1641.35 368.94 1647.37 359.8 1651.16 355 1651.79"/><path d="M 345 1651.79 340.2 1651.16 331.06 1647.37 323.21 1641.35 317.19 1633.51 313.41 1624.37 312.77 1619.57 345 1619.57 345 1651.79"/><path d="M 387.23 1609.57 355 1609.57 355 1577.34 359.8 1577.98 368.94 1581.76 376.79 1587.78 382.81 1595.63 386.59 1604.76 387.23 1609.57"/><path d="M 345 1609.57 312.77 1609.57 313.41 1604.76 317.19 1595.63 323.21 1587.78 331.06 1581.76 340.2 1577.98 345 1577.34 345 1609.57"/><path d="M 355 1466.44 355 1363.07 458.37 1363.07 457.42 1375.08 453.44 1391.68 446.91 1407.45 437.99 1422 426.91 1434.98 413.93 1446.06 399.38 1454.98 383.61 1461.51 367.01 1465.49 355 1466.44"/><path d="M 345 1466.44 332.99 1465.49 316.39 1461.51 300.62 1454.98 286.07 1446.06 273.1 1434.98 262.01 1422 253.09 1407.45 246.56 1391.68 242.58 1375.08 241.63 1363.07 345 1363.07 345 1466.44"/><path d="M 345 1353.07 241.63 1353.07 242.58 1341.06 246.56 1324.46 253.09 1308.69 262.01 1294.14 273.1 1281.17 286.07 1270.08 300.62 1261.16 316.39 1254.63 332.99 1250.65 345 1249.7 345 1353.07"/><path d="M 458.37 1353.07 355 1353.07 355 1249.7 367.01 1250.65 383.61 1254.63 399.38 1261.16 413.93 1270.08 426.91 1281.17 437.99 1294.14 446.91 1308.69 453.44 1324.46 457.42 1341.06 458.37 1353.07"/><path d="M 2039.69 1020.76 2000.31 1020.76 1988.47 1019.2 1977.43 1014.63 1967.96 1007.36 1960.68 997.88 1956.11 986.84 1954.55 975 1956.11 963.16 1960.68 952.12 1967.96 942.64 1977.43 935.37 1988.47 930.8 2000.31 929.24 2039.69 929.24 2051.53 930.8 2062.57 935.37 2072.04 942.64 2079.32 952.12 2083.89 963.16 2085.45 975 2083.89 986.84 2079.32 997.88 2072.04 1007.36 2062.57 1014.63 2051.53 1019.2 2039.69 1020.76"/><path d="M 1380 871.95 1380 855 1396.95 855 1396.2 858.78 1391.22 866.22 1383.78 871.19 1380 871.95"/><path d="M 1370 871.95 1366.22 871.19 1358.78 866.22 1353.8 858.78 1353.05 855 1370 855 1370 871.95"/><path d="M 930 871.95 930 855 946.95 855 946.19 858.78 941.22 866.22 933.78 871.19 930 871.95"/><path d="M 920 871.95 916.22 871.19 908.78 866.22 903.81 858.78 903.05 855 920 855 920 871.95"/><path d="M 1396.95 845 1380 845 1380 828.05 1383.78 828.81 1391.22 833.78 1396.2 841.22 1396.95 845"/><path d="M 1370 845 1353.05 845 1353.8 841.22 1358.78 833.78 1366.22 828.81 1370 828.05 1370 845"/><path d="M 946.95 845 930 845 930 828.05 933.78 828.81 941.22 833.78 946.19 841.22 946.95 845"/><path d="M 920 845 903.05 845 903.81 841.22 908.78 833.78 916.22 828.81 920 828.05 920 845"/><path d="M 2083.5 725.86 2083.5 646.14 2163.22 646.14 2162.08 657.77 2157.23 673.75 2149.36 688.48 2138.76 701.4 2125.85 711.99 2111.11 719.87 2095.13 724.72 2083.5 725.86"/><path d="M 2073.5 725.86 2061.88 724.72 2045.89 719.87 2031.16 711.99 2018.25 701.4 2007.65 688.48 1999.78 673.75 1994.93 657.77 1993.78 646.14 2073.5 646.14 2073.5 725.86"/><path d="M 2163.22 636.14 2083.5 636.14 2083.5 556.42 2095.13 557.57 2111.11 562.42 2125.85 570.29 2138.76 580.89 2149.36 593.8 2157.23 608.53 2162.08 624.52 2163.22 636.14"/><path d="M 2073.5 636.14 1993.78 636.14 1994.93 624.52 1999.78 608.53 2007.65 593.8 2018.25 580.89 2031.16 570.29 2045.89 562.42 2061.88 557.57 2073.5 556.42 2073.5 636.14"/><path d="M 1965 548.07 1965 513.86 1999.21 513.86 1998.51 519.18 1994.53 528.79 1988.19 537.05 1979.93 543.39 1970.32 547.37 1965 548.07"/><path d="M 1955 548.07 1949.68 547.37 1940.07 543.39 1931.81 537.05 1925.47 528.79 1921.49 519.18 1920.79 513.86 1955 513.86 1955 548.07"/><path d="M 1861.97 544.69 1852.69 543.47 1844.05 539.89 1836.63 534.2 1830.94 526.78 1827.36 518.13 1826.13 508.86 1827.36 499.58 1830.94 490.94 1836.63 483.52 1844.05 477.82 1852.69 474.25 1861.97 473.02 1871.24 474.25 1879.89 477.82 1887.31 483.52 1893 490.94 1896.58 499.58 1897.8 508.86 1896.58 518.13 1893 526.78 1887.31 534.2 1879.89 539.89 1871.24 543.47 1861.97 544.69"/><path d="M 1999.21 503.86 1965 503.86 1965 469.65 1970.32 470.35 1979.93 474.33 1988.19 480.67 1994.53 488.92 1998.51 498.54 1999.21 503.86"/><path d="M 1955 503.86 1920.79 503.86 1921.49 498.54 1925.47 488.92 1931.81 480.67 1940.07 474.33 1949.68 470.35 1955 469.65 1955 503.86"/><path d="M 2105 459.72 2093.38 458.58 2077.39 453.73 2062.66 445.85 2049.75 435.25 2039.15 422.34 2031.27 407.61 2026.42 391.62 2025.28 380 2105 380 2105 459.72"/><path d="M 2105 370 2025.28 370 2026.42 358.38 2031.27 342.39 2039.15 327.66 2049.75 314.75 2062.66 304.15 2077.39 296.27 2093.38 291.42 2105 290.28 2105 370"/><path d="M 1965 280.35 1965 246.14 1999.21 246.14 1998.51 251.46 1994.53 261.08 1988.19 269.33 1979.93 275.67 1970.32 279.65 1965 280.35"/><path d="M 1955 280.35 1949.68 279.65 1940.07 275.67 1931.81 269.33 1925.47 261.08 1921.49 251.46 1920.79 246.14 1955 246.14 1955 280.35"/><path d="M 1861.97 276.98 1852.69 275.75 1844.05 272.18 1836.63 266.48 1830.94 259.06 1827.36 250.42 1826.13 241.14 1827.36 231.87 1830.94 223.22 1836.63 215.8 1844.05 210.11 1852.69 206.53 1861.97 205.31 1871.24 206.53 1879.89 210.11 1887.31 215.8 1893 223.22 1896.58 231.87 1897.8 241.14 1896.58 250.42 1893 259.06 1887.31 266.48 1879.89 272.18 1871.24 275.75 1861.97 276.98"/><path d="M 1999.21 236.14 1965 236.14 1965 201.93 1970.32 202.63 1979.93 206.61 1988.19 212.95 1994.53 221.21 1998.51 230.82 1999.21 236.14"/><path d="M 1955 236.14 1920.79 236.14 1921.49 230.82 1925.47 221.21 1931.81 212.95 1940.07 206.61 1949.68 202.63 1955 201.93 1955 236.14"/><path d="M 1248.43 197.23 1248.43 165 1280.65 165 1280.02 169.81 1276.23 178.94 1270.21 186.79 1262.37 192.81 1253.23 196.59 1248.43 197.23"/><path d="M 1051.57 199.21 1051.57 165 1085.79 165 1085.09 170.32 1081.1 179.93 1074.77 188.19 1066.51 194.53 1056.89 198.51 1051.57 199.21"/><path d="M 1238.43 197.23 1233.62 196.59 1224.48 192.81 1216.64 186.79 1210.62 178.94 1206.83 169.81 1206.2 165 1238.43 165 1238.43 197.23"/><path d="M 1041.57 199.21 1036.26 198.51 1026.64 194.53 1018.38 188.19 1012.05 179.93 1008.06 170.32 1007.36 165 1041.57 165 1041.57 199.21"/><path d="M 1280.65 155 1248.43 155 1248.43 122.78 1253.23 123.41 1262.37 127.19 1270.21 133.21 1276.23 141.06 1280.02 150.2 1280.65 155"/><path d="M 1238.43 155 1206.2 155 1206.83 150.2 1210.62 141.06 1216.64 133.21 1224.48 127.19 1233.62 123.41 1238.43 122.78 1238.43 155"/><path d="M 1085.79 155 1051.57 155 1051.57 120.79 1056.89 121.49 1066.51 125.47 1074.77 131.81 1081.1 140.07 1085.09 149.68 1085.79 155"/><path d="M 1041.57 155 1007.36 155 1008.06 149.68 1012.05 140.07 1018.38 131.81 1026.64 125.47 1036.26 121.49 1041.57 120.79 1041.57 155"/><path d="M 2083.5 193.58 2083.5 113.86 2163.22 113.86 2162.08 125.48 2157.23 141.47 2149.36 156.2 2138.76 169.11 2125.85 179.71 2111.11 187.58 2095.13 192.43 2083.5 193.58"/><path d="M 2073.5 193.58 2061.88 192.43 2045.89 187.58 2031.16 179.71 2018.25 169.11 2007.65 156.2 1999.78 141.47 1994.93 125.48 1993.78 113.86 2073.5 113.86 2073.5 193.58"/><path d="M 1600 231.39 1584.12 229.83 1568.85 225.2 1554.78 217.68 1542.45 207.55 1532.33 195.22 1524.8 181.15 1520.17 165.88 1518.61 150 1520.17 134.12 1524.8 118.85 1532.33 104.78 1542.45 92.45 1554.78 82.32 1568.85 74.8 1584.12 70.17 1600 68.61 1615.88 70.17 1631.15 74.8 1645.22 82.32 1657.55 92.45 1667.68 104.78 1675.2 118.85 1679.83 134.12 1681.39 150 1679.83 165.88 1675.2 181.15 1667.68 195.22 1657.55 207.55 1645.22 217.68 1631.15 225.2 1615.88 229.83 1600 231.39"/><path d="M 150 231.39 134.12 229.83 118.85 225.2 104.78 217.68 92.45 207.55 82.32 195.22 74.8 181.15 70.17 165.88 68.61 150 70.17 134.12 74.8 118.85 82.32 104.78 92.45 92.45 104.78 82.32 118.85 74.8 134.12 70.17 150 68.61 165.88 70.17 181.15 74.8 195.22 82.32 207.55 92.45 217.68 104.78 225.2 118.85 229.83 134.12 231.39 150 229.83 165.88 225.2 181.15 217.68 195.22 207.55 207.55 195.22 217.68 181.15 225.2 165.88 229.83 150 231.39"/><path d="M 1287.79 93.94 1287.79 54.76 1326.97 54.76 1326.1 61.37 1321.62 72.18 1314.5 81.46 1305.21 88.59 1294.4 93.07 1287.79 93.94"/><path d="M 1277.79 93.94 1271.19 93.07 1260.38 88.59 1251.09 81.46 1243.97 72.18 1239.49 61.37 1238.62 54.76 1277.79 54.76 1277.79 93.94"/><path d="M 1012.21 93.94 1012.21 54.76 1051.38 54.76 1050.51 61.37 1046.03 72.18 1038.91 81.46 1029.62 88.59 1018.81 93.07 1012.21 93.94"/><path d="M 1002.21 93.94 995.6 93.07 984.79 88.59 975.5 81.46 968.38 72.18 963.9 61.37 963.03 54.76 1002.21 54.76 1002.21 93.94"/></g></mask><circle cx="0" cy="0" r="34.45" id="qaKeWkgW4oh2tPKvy5Q-_pad-57"/><circle cx="0" cy="0" r="27.56" id="qaKeWkgW4oh2tPKvy5Q-_pad-58"/><circle cx="0" cy="0" r="29.53" id="qaKeWkgW4oh2tPKvy5Q-_pad-59"/><rect x="-59.055" y="-39.37" width="118.11" height="78.74" rx="39.37" ry="39.37" id="qaKeWkgW4oh2tPKvy5Q-_pad-60"/><circle cx="0" cy="0" r="59.055" id="qaKeWkgW4oh2tPKvy5Q-_pad-61"/><circle cx="0" cy="0" r="74.805" id="qaKeWkgW4oh2tPKvy5Q-_pad-62"/><rect x="-27.56" y="-27.56" width="55.12" height="55.12" id="qaKeWkgW4oh2tPKvy5Q-_pad-63"/><circle cx="0" cy="0" r="30" id="qaKeWkgW4oh2tPKvy5Q-_pad-64"/><circle cx="0" cy="0" r="35.435" id="qaKeWkgW4oh2tPKvy5Q-_pad-65"/><circle cx="0" cy="0" r="98.425" id="qaKeWkgW4oh2tPKvy5Q-_pad-66"/><circle cx="0" cy="0" r="12.5" id="qaKeWkgW4oh2tPKvy5Q-_pad-67"/><circle cx="0" cy="0" r="36.45" id="sade_B7g5yrf-2RVvYcS_pad-30"/><circle cx="0" cy="0" r="29.56" id="sade_B7g5yrf-2RVvYcS_pad-31"/><circle cx="0" cy="0" r="31.53" id="sade_B7g5yrf-2RVvYcS_pad-32"/><rect x="-61.055" y="-41.37" width="122.11" height="82.74" rx="41.37" ry="41.37" id="sade_B7g5yrf-2RVvYcS_pad-33"/><circle cx="0" cy="0" r="61.055" id="sade_B7g5yrf-2RVvYcS_pad-34"/><circle cx="0" cy="0" r="76.805" id="sade_B7g5yrf-2RVvYcS_pad-35"/><rect x="-29.56" y="-29.56" width="59.12" height="59.12" id="sade_B7g5yrf-2RVvYcS_pad-36"/><circle cx="0" cy="0" r="32" id="sade_B7g5yrf-2RVvYcS_pad-37"/><circle cx="0" cy="0" r="2" id="sade_B7g5yrf-2RVvYcS_pad-38"/><circle cx="0" cy="0" r="37.435" id="sade_B7g5yrf-2RVvYcS_pad-39"/><circle cx="0" cy="0" r="100.425" id="sade_B7g5yrf-2RVvYcS_pad-40"/><circle cx="0" cy="0" r="6.5" id="wrYcn8YCWYVE1VbTnZ7V_pad-1"/><circle cx="0" cy="0" r="17.715" id="wrYcn8YCWYVE1VbTnZ7V_pad-2"/><circle cx="0" cy="0" r="19.685" id="wrYcn8YCWYVE1VbTnZ7V_pad-3"/><circle cx="0" cy="0" r="25.59" id="wrYcn8YCWYVE1VbTnZ7V_pad-5"/><circle cx="0" cy="0" r="27.56" id="wrYcn8YCWYVE1VbTnZ7V_pad-6"/><circle cx="0" cy="0" r="44.88" id="wrYcn8YCWYVE1VbTnZ7V_pad-8"/><circle cx="0" cy="0" r="64.96" id="wrYcn8YCWYVE1VbTnZ7V_pad-9"/><circle cx="0" cy="0" r="75" id="wrYcn8YCWYVE1VbTnZ7V_pad-11"/><g id="KkkoVMO5YSrEjKHCkpR0_bottom_copper"><g mask="url(#qaKeWkgW4oh2tPKvy5Q-_clear-1)"><path d="M 2064.76 3824.41 2065.26 3823.22 2065.26 3818.41 2070.07 3818.41 2071.26 3817.91 2180 3817.91 2180 1882.08 2071.26 1882.08 2070.07 1881.59 2065.26 1881.59 2065.26 1876.78 2064.76 1875.59 2064.76 1745.67 2065.26 1744.48 2065.26 1739.67 2070.07 1739.67 2071.26 1739.17 2180 1739.17 2180 1042 2170.45 1039.11 2158.46 1032.7 2147.94 1024.07 2139.31 1013.55 2132.9 1001.55 2128.95 988.54 2128.11 980 2197.01 980 2197.01 970 2128.11 970 2128.95 961.46 2132.9 948.45 2139.31 936.45 2147.94 925.93 2158.46 917.3 2170.45 910.89 2182.87 907.12 2200 890 2200 377.41 2195 377.17 2194.95 377.72 2193.58 391.62 2188.73 407.61 2180.85 422.34 2170.25 435.25 2157.34 445.85 2142.61 453.73 2126.62 458.58 2115 459.72 2115 375 2115 290.28 2126.62 291.42 2142.61 296.27 2157.34 304.15 2170.25 314.75 2180.85 327.66 2188.73 342.39 2193.58 358.38 2194.95 372.28 2195 372.83 2200 372.59 2200 20 2092.51 20 2092.26 25 2095.13 25.28 2111.11 30.13 2125.85 38.01 2138.76 48.6 2149.36 61.52 2157.23 76.25 2162.08 92.23 2163.22 103.86 2078.5 103.86 1993.78 103.86 1994.93 92.23 1999.78 76.25 2007.65 61.52 2018.25 48.6 2031.16 38.01 2045.89 30.13 2061.88 25.28 2064.75 25 2064.5 20 1321.64 20 1319.42 24.48 1321.62 27.35 1326.1 38.16 1326.97 44.76 1282.79 44.76 1238.62 44.76 1239.49 38.16 1243.97 27.35 1246.17 24.48 1243.96 20 1046.04 20 1043.83 24.48 1046.03 27.35 1050.51 38.16 1051.38 44.76 1007.21 44.76 963.03 44.76 963.9 38.16 968.38 27.35 970.58 24.48 968.36 20 50 20 50 2895.23 55 2897.6 61.45 2892.3 73.45 2885.89 86.46 2881.94 95 2881.1 95 2950 95 3018.9 86.46 3018.06 73.45 3014.11 61.45 3007.69 55 3002.4 50 3004.77 50 3495.23 55 3497.6 61.45 3492.31 73.45 3485.89 86.46 3481.94 95 3481.1 95 3550 95 3618.9 86.46 3618.06 73.45 3614.11 61.45 3607.7 55 3602.4 50 3604.77 50 3945 2064.76 3945 2064.76 3824.41"/></g><path d="M 250 1850 255 1850" fill="none" stroke-width="10"/><path d="M 1010 2395 1080 2395 M 1326.65 1940 1326.81 1940.16 1460 1940.16 M 1775 1925 1775 2050 M 450 1669.69 550 1769.69 550 1900 M 600 1825 600 1900" fill="none" stroke-width="8"/><path d="M 1000 2050 1065 2050" fill="none" stroke-width="15"/><use xlink:href="#qaKeWkgW4oh2tPKvy5Q-_pad-57" x="1282.79" y="49.76"/><use xlink:href="#qaKeWkgW4oh2tPKvy5Q-_pad-57" x="1007.21" y="49.76"/><use xlink:href="#qaKeWkgW4oh2tPKvy5Q-_pad-58" x="1243.43" y="160"/><use xlink:href="#qaKeWkgW4oh2tPKvy5Q-_pad-58" x="450" y="1759.84"/><use xlink:href="#qaKeWkgW4oh2tPKvy5Q-_pad-58" x="450" y="1850"/><use xlink:href="#qaKeWkgW4oh2tPKvy5Q-_pad-58" x="250" y="1850"/><use xlink:href="#qaKeWkgW4oh2tPKvy5Q-_pad-58" x="250" y="1940.16"/><use xlink:href="#qaKeWkgW4oh2tPKvy5Q-_pad-58" x="250" y="1669.69"/><use xlink:href="#qaKeWkgW4oh2tPKvy5Q-_pad-58" x="250" y="1759.84"/><use xlink:href="#qaKeWkgW4oh2tPKvy5Q-_pad-58" x="450" y="1940.16"/><use xlink:href="#qaKeWkgW4oh2tPKvy5Q-_pad-58" x="350" y="1885.04"/><use xlink:href="#qaKeWkgW4oh2tPKvy5Q-_pad-58" x="250" y="2030.31"/><use xlink:href="#qaKeWkgW4oh2tPKvy5Q-_pad-58" x="450" y="2030.31"/><use xlink:href="#qaKeWkgW4oh2tPKvy5Q-_pad-58" x="350" y="1614.57"/><use xlink:href="#qaKeWkgW4oh2tPKvy5Q-_pad-58" x="350" y="1704.72"/><use xlink:href="#qaKeWkgW4oh2tPKvy5Q-_pad-58" x="350" y="1794.88"/><use xlink:href="#qaKeWkgW4oh2tPKvy5Q-_pad-58" x="350" y="1975.2"/><use xlink:href="#qaKeWkgW4oh2tPKvy5Q-_pad-59" x="1046.57" y="160"/><use xlink:href="#qaKeWkgW4oh2tPKvy5Q-_pad-59" x="1960" y="508.86"/><use xlink:href="#qaKeWkgW4oh2tPKvy5Q-_pad-59" x="1960" y="241.14"/><use xlink:href="#qaKeWkgW4oh2tPKvy5Q-_pad-59" x="1861.97" y="508.86"/><use xlink:href="#qaKeWkgW4oh2tPKvy5Q-_pad-59" x="1861.97" y="241.14"/><use xlink:href="#qaKeWkgW4oh2tPKvy5Q-_pad-60" x="2020" y="975"/><use xlink:href="#qaKeWkgW4oh2tPKvy5Q-_pad-60" x="277.01" y="2950"/><use xlink:href="#qaKeWkgW4oh2tPKvy5Q-_pad-60" x="277.01" y="3550"/><use xlink:href="#qaKeWkgW4oh2tPKvy5Q-_pad-61" x="2197.01" y="975"/><use xlink:href="#qaKeWkgW4oh2tPKvy5Q-_pad-61" x="100" y="2950"/><use xlink:href="#qaKeWkgW4oh2tPKvy5Q-_pad-61" x="100" y="3550"/><use xlink:href="#qaKeWkgW4oh2tPKvy5Q-_pad-62" x="2110" y="375"/><use xlink:href="#qaKeWkgW4oh2tPKvy5Q-_pad-62" x="2078.5" y="641.14"/><use xlink:href="#qaKeWkgW4oh2tPKvy5Q-_pad-62" x="2078.5" y="108.86"/><use xlink:href="#qaKeWkgW4oh2tPKvy5Q-_pad-63" x="450" y="1669.69"/><use xlink:href="#qaKeWkgW4oh2tPKvy5Q-_pad-64" x="150" y="150"/><use xlink:href="#qaKeWkgW4oh2tPKvy5Q-_pad-64" x="1600" y="150"/><use xlink:href="#qaKeWkgW4oh2tPKvy5Q-_pad-64" x="1600" y="3850"/><use xlink:href="#qaKeWkgW4oh2tPKvy5Q-_pad-64" x="150" y="3850"/><use xlink:href="#qaKeWkgW4oh2tPKvy5Q-_pad-65" x="1900" y="3600"/><use xlink:href="#qaKeWkgW4oh2tPKvy5Q-_pad-65" x="1900" y="3450"/><use xlink:href="#qaKeWkgW4oh2tPKvy5Q-_pad-65" x="1900" y="3150"/><use xlink:href="#qaKeWkgW4oh2tPKvy5Q-_pad-65" x="1900" y="3300"/><use xlink:href="#qaKeWkgW4oh2tPKvy5Q-_pad-65" x="1900" y="2700"/><use xlink:href="#qaKeWkgW4oh2tPKvy5Q-_pad-65" x="1900" y="2550"/><use xlink:href="#qaKeWkgW4oh2tPKvy5Q-_pad-65" x="1900" y="2850"/><use xlink:href="#qaKeWkgW4oh2tPKvy5Q-_pad-65" x="1900" y="3000"/><use xlink:href="#qaKeWkgW4oh2tPKvy5Q-_pad-65" x="1900" y="2400"/><use xlink:href="#qaKeWkgW4oh2tPKvy5Q-_pad-65" x="1900" y="2100"/><use xlink:href="#qaKeWkgW4oh2tPKvy5Q-_pad-65" x="1900" y="2250"/><use xlink:href="#qaKeWkgW4oh2tPKvy5Q-_pad-65" x="2100" y="2174.61"/><use xlink:href="#qaKeWkgW4oh2tPKvy5Q-_pad-65" x="2100" y="2324.61"/><use xlink:href="#qaKeWkgW4oh2tPKvy5Q-_pad-65" x="2100" y="2924.61"/><use xlink:href="#qaKeWkgW4oh2tPKvy5Q-_pad-65" x="2100" y="2774.61"/><use xlink:href="#qaKeWkgW4oh2tPKvy5Q-_pad-65" x="2100" y="2474.61"/><use xlink:href="#qaKeWkgW4oh2tPKvy5Q-_pad-65" x="2100" y="2624.61"/><use xlink:href="#qaKeWkgW4oh2tPKvy5Q-_pad-65" x="2100" y="3224.61"/><use xlink:href="#qaKeWkgW4oh2tPKvy5Q-_pad-65" x="2100" y="3074.61"/><use xlink:href="#qaKeWkgW4oh2tPKvy5Q-_pad-65" x="2100" y="3374.61"/><use xlink:href="#qaKeWkgW4oh2tPKvy5Q-_pad-65" x="2100" y="3524.61"/><use xlink:href="#qaKeWkgW4oh2tPKvy5Q-_pad-66" x="350" y="1358.07"/><use xlink:href="#qaKeWkgW4oh2tPKvy5Q-_pad-66" x="350" y="2341.93"/><use xlink:href="#qaKeWkgW4oh2tPKvy5Q-_pad-67" x="1345" y="2475"/><use xlink:href="#qaKeWkgW4oh2tPKvy5Q-_pad-67" x="1080" y="2395"/><use xlink:href="#qaKeWkgW4oh2tPKvy5Q-_pad-67" x="1326.65" y="1940"/><use xlink:href="#qaKeWkgW4oh2tPKvy5Q-_pad-67" x="1460" y="1940.16"/><use xlink:href="#qaKeWkgW4oh2tPKvy5Q-_pad-67" x="1010" y="2395"/><use xlink:href="#qaKeWkgW4oh2tPKvy5Q-_pad-67" x="1000" y="2050"/><use xlink:href="#qaKeWkgW4oh2tPKvy5Q-_pad-67" x="1065" y="2050"/><use xlink:href="#qaKeWkgW4oh2tPKvy5Q-_pad-67" x="1484.84" y="2645.28"/><use xlink:href="#qaKeWkgW4oh2tPKvy5Q-_pad-67" x="1081.89" y="2798.42"/><use xlink:href="#qaKeWkgW4oh2tPKvy5Q-_pad-67" x="944.29" y="2525"/><use xlink:href="#qaKeWkgW4oh2tPKvy5Q-_pad-67" x="944.29" y="2575"/><use xlink:href="#qaKeWkgW4oh2tPKvy5Q-_pad-67" x="935.43" y="2161.61"/><use xlink:href="#qaKeWkgW4oh2tPKvy5Q-_pad-67" x="1366.53" y="2150"/><use xlink:href="#qaKeWkgW4oh2tPKvy5Q-_pad-67" x="1335.43" y="1725"/><use xlink:href="#qaKeWkgW4oh2tPKvy5Q-_pad-67" x="864.57" y="1825"/><use xlink:href="#qaKeWkgW4oh2tPKvy5Q-_pad-67" x="966.53" y="1950"/><use xlink:href="#qaKeWkgW4oh2tPKvy5Q-_pad-67" x="975" y="2000"/><use xlink:href="#qaKeWkgW4oh2tPKvy5Q-_pad-67" x="1418.11" y="1823.43"/><use xlink:href="#qaKeWkgW4oh2tPKvy5Q-_pad-67" x="1418.7" y="1673.42"/><use xlink:href="#qaKeWkgW4oh2tPKvy5Q-_pad-67" x="1375" y="850"/><use xlink:href="#qaKeWkgW4oh2tPKvy5Q-_pad-67" x="925" y="850"/><use xlink:href="#qaKeWkgW4oh2tPKvy5Q-_pad-67" x="1775" y="1925"/><use xlink:href="#qaKeWkgW4oh2tPKvy5Q-_pad-67" x="1775" y="2050"/><use xlink:href="#qaKeWkgW4oh2tPKvy5Q-_pad-67" x="550" y="1900"/><use xlink:href="#qaKeWkgW4oh2tPKvy5Q-_pad-67" x="600" y="1825"/><use xlink:href="#qaKeWkgW4oh2tPKvy5Q-_pad-67" x="600" y="1900"/><use xlink:href="#qaKeWkgW4oh2tPKvy5Q-_pad-67" x="700" y="1650"/><use xlink:href="#qaKeWkgW4oh2tPKvy5Q-_pad-67" x="700" y="1700"/><use xlink:href="#qaKeWkgW4oh2tPKvy5Q-_pad-67" x="700" y="1750"/></g><g id="KkkoVMO5YSrEjKHCkpR0_bottom_soldermask"><use xlink:href="#sade_B7g5yrf-2RVvYcS_pad-30" x="1282.79" y="49.76"/><use xlink:href="#sade_B7g5yrf-2RVvYcS_pad-30" x="1007.21" y="49.76"/><use xlink:href="#sade_B7g5yrf-2RVvYcS_pad-31" x="1243.43" y="160"/><use xlink:href="#sade_B7g5yrf-2RVvYcS_pad-31" x="450" y="1759.84"/><use xlink:href="#sade_B7g5yrf-2RVvYcS_pad-31" x="450" y="1850"/><use xlink:href="#sade_B7g5yrf-2RVvYcS_pad-31" x="250" y="1850"/><use xlink:href="#sade_B7g5yrf-2RVvYcS_pad-31" x="250" y="1940.16"/><use xlink:href="#sade_B7g5yrf-2RVvYcS_pad-31" x="250" y="1669.69"/><use xlink:href="#sade_B7g5yrf-2RVvYcS_pad-31" x="250" y="1759.84"/><use xlink:href="#sade_B7g5yrf-2RVvYcS_pad-31" x="450" y="1940.16"/><use xlink:href="#sade_B7g5yrf-2RVvYcS_pad-31" x="350" y="1885.04"/><use xlink:href="#sade_B7g5yrf-2RVvYcS_pad-31" x="250" y="2030.31"/><use xlink:href="#sade_B7g5yrf-2RVvYcS_pad-31" x="450" y="2030.31"/><use xlink:href="#sade_B7g5yrf-2RVvYcS_pad-31" x="350" y="1614.57"/><use xlink:href="#sade_B7g5yrf-2RVvYcS_pad-31" x="350" y="1704.72"/><use xlink:href="#sade_B7g5yrf-2RVvYcS_pad-31" x="350" y="1794.88"/><use xlink:href="#sade_B7g5yrf-2RVvYcS_pad-31" x="350" y="1975.2"/><use xlink:href="#sade_B7g5yrf-2RVvYcS_pad-32" x="1046.57" y="160"/><use xlink:href="#sade_B7g5yrf-2RVvYcS_pad-32" x="1960" y="508.86"/><use xlink:href="#sade_B7g5yrf-2RVvYcS_pad-32" x="1960" y="241.14"/><use xlink:href="#sade_B7g5yrf-2RVvYcS_pad-32" x="1861.97" y="508.86"/><use xlink:href="#sade_B7g5yrf-2RVvYcS_pad-32" x="1861.97" y="241.14"/><use xlink:href="#sade_B7g5yrf-2RVvYcS_pad-33" x="2020" y="975"/><use xlink:href="#sade_B7g5yrf-2RVvYcS_pad-33" x="277.01" y="2950"/><use xlink:href="#sade_B7g5yrf-2RVvYcS_pad-33" x="277.01" y="3550"/><use xlink:href="#sade_B7g5yrf-2RVvYcS_pad-34" x="2197.01" y="975"/><use xlink:href="#sade_B7g5yrf-2RVvYcS_pad-34" x="100" y="2950"/><use xlink:href="#sade_B7g5yrf-2RVvYcS_pad-34" x="100" y="3550"/><use xlink:href="#sade_B7g5yrf-2RVvYcS_pad-35" x="2110" y="375"/><use xlink:href="#sade_B7g5yrf-2RVvYcS_pad-35" x="2078.5" y="641.14"/><use xlink:href="#sade_B7g5yrf-2RVvYcS_pad-35" x="2078.5" y="108.86"/><use xlink:href="#sade_B7g5yrf-2RVvYcS_pad-36" x="450" y="1669.69"/><use xlink:href="#sade_B7g5yrf-2RVvYcS_pad-37" x="150" y="150"/><use xlink:href="#sade_B7g5yrf-2RVvYcS_pad-37" x="1600" y="150"/><use xlink:href="#sade_B7g5yrf-2RVvYcS_pad-37" x="1600" y="3850"/><use xlink:href="#sade_B7g5yrf-2RVvYcS_pad-37" x="150" y="3850"/><use xlink:href="#sade_B7g5yrf-2RVvYcS_pad-38" x="2189.37" y="3889.37"/><use xlink:href="#sade_B7g5yrf-2RVvYcS_pad-38" x="2189.37" y="1810.63"/><use xlink:href="#sade_B7g5yrf-2RVvYcS_pad-39" x="1900" y="3600"/><use xlink:href="#sade_B7g5yrf-2RVvYcS_pad-39" x="1900" y="3450"/><use xlink:href="#sade_B7g5yrf-2RVvYcS_pad-39" x="1900" y="3150"/><use xlink:href="#sade_B7g5yrf-2RVvYcS_pad-39" x="1900" y="3300"/><use xlink:href="#sade_B7g5yrf-2RVvYcS_pad-39" x="1900" y="2700"/><use xlink:href="#sade_B7g5yrf-2RVvYcS_pad-39" x="1900" y="2550"/><use xlink:href="#sade_B7g5yrf-2RVvYcS_pad-39" x="1900" y="2850"/><use xlink:href="#sade_B7g5yrf-2RVvYcS_pad-39" x="1900" y="3000"/><use xlink:href="#sade_B7g5yrf-2RVvYcS_pad-39" x="1900" y="2400"/><use xlink:href="#sade_B7g5yrf-2RVvYcS_pad-39" x="1900" y="2100"/><use xlink:href="#sade_B7g5yrf-2RVvYcS_pad-39" x="1900" y="2250"/><use xlink:href="#sade_B7g5yrf-2RVvYcS_pad-39" x="2100" y="2174.61"/><use xlink:href="#sade_B7g5yrf-2RVvYcS_pad-39" x="2100" y="2324.61"/><use xlink:href="#sade_B7g5yrf-2RVvYcS_pad-39" x="2100" y="2924.61"/><use xlink:href="#sade_B7g5yrf-2RVvYcS_pad-39" x="2100" y="2774.61"/><use xlink:href="#sade_B7g5yrf-2RVvYcS_pad-39" x="2100" y="2474.61"/><use xlink:href="#sade_B7g5yrf-2RVvYcS_pad-39" x="2100" y="2624.61"/><use xlink:href="#sade_B7g5yrf-2RVvYcS_pad-39" x="2100" y="3224.61"/><use xlink:href="#sade_B7g5yrf-2RVvYcS_pad-39" x="2100" y="3074.61"/><use xlink:href="#sade_B7g5yrf-2RVvYcS_pad-39" x="2100" y="3374.61"/><use xlink:href="#sade_B7g5yrf-2RVvYcS_pad-39" x="2100" y="3524.61"/><use xlink:href="#sade_B7g5yrf-2RVvYcS_pad-40" x="350" y="1358.07"/><use xlink:href="#sade_B7g5yrf-2RVvYcS_pad-40" x="350" y="2341.93"/></g><g id="KkkoVMO5YSrEjKHCkpR0_bottom_drill1"><path d="M 1990.47 975 2049.53 975 M 306.54 2950 247.48 2950 M 306.54 3550 247.48 3550" fill="none" stroke-width="47.24"/><path d="M 2197.01 963.19 2197.01 986.81 M 100 2961.81 100 2938.19 M 100 3561.81 100 3538.19" fill="none" stroke-width="78.74"/></g><g id="KkkoVMO5YSrEjKHCkpR0_bottom_drill2"><path d="M 2136.22 1810.63 2242.52 1810.63 M 2136.22 3889.37 2242.52 3889.37" fill="none" stroke-width="129.92"/></g><g id="KkkoVMO5YSrEjKHCkpR0_bottom_drill3"><use xlink:href="#wrYcn8YCWYVE1VbTnZ7V_pad-1" x="1375" y="850"/><use xlink:href="#wrYcn8YCWYVE1VbTnZ7V_pad-1" x="1418.7" y="1673.42"/><use xlink:href="#wrYcn8YCWYVE1VbTnZ7V_pad-1" x="1335.43" y="1725"/><use xlink:href="#wrYcn8YCWYVE1VbTnZ7V_pad-1" x="1418.11" y="1823.43"/><use xlink:href="#wrYcn8YCWYVE1VbTnZ7V_pad-1" x="1460" y="1940.16"/><use xlink:href="#wrYcn8YCWYVE1VbTnZ7V_pad-1" x="1326.65" y="1940"/><use xlink:href="#wrYcn8YCWYVE1VbTnZ7V_pad-1" x="1775" y="1925"/><use xlink:href="#wrYcn8YCWYVE1VbTnZ7V_pad-1" x="1775" y="2050"/><use xlink:href="#wrYcn8YCWYVE1VbTnZ7V_pad-1" x="1065" y="2050"/><use xlink:href="#wrYcn8YCWYVE1VbTnZ7V_pad-1" x="1000" y="2050"/><use xlink:href="#wrYcn8YCWYVE1VbTnZ7V_pad-1" x="975" y="2000"/><use xlink:href="#wrYcn8YCWYVE1VbTnZ7V_pad-1" x="966.53" y="1950"/><use xlink:href="#wrYcn8YCWYVE1VbTnZ7V_pad-1" x="864.57" y="1825"/><use xlink:href="#wrYcn8YCWYVE1VbTnZ7V_pad-1" x="700" y="1750"/><use xlink:href="#wrYcn8YCWYVE1VbTnZ7V_pad-1" x="700" y="1700"/><use xlink:href="#wrYcn8YCWYVE1VbTnZ7V_pad-1" x="700" y="1650"/><use xlink:href="#wrYcn8YCWYVE1VbTnZ7V_pad-1" x="600" y="1825"/><use xlink:href="#wrYcn8YCWYVE1VbTnZ7V_pad-1" x="600" y="1900"/><use xlink:href="#wrYcn8YCWYVE1VbTnZ7V_pad-1" x="550" y="1900"/><use xlink:href="#wrYcn8YCWYVE1VbTnZ7V_pad-1" x="925" y="850"/><use xlink:href="#wrYcn8YCWYVE1VbTnZ7V_pad-1" x="935.43" y="2161.61"/><use xlink:href="#wrYcn8YCWYVE1VbTnZ7V_pad-1" x="1010" y="2395"/><use xlink:href="#wrYcn8YCWYVE1VbTnZ7V_pad-1" x="1080" y="2395"/><use xlink:href="#wrYcn8YCWYVE1VbTnZ7V_pad-1" x="944.29" y="2525"/><use xlink:href="#wrYcn8YCWYVE1VbTnZ7V_pad-1" x="944.29" y="2575"/><use xlink:href="#wrYcn8YCWYVE1VbTnZ7V_pad-1" x="1081.89" y="2798.42"/><use xlink:href="#wrYcn8YCWYVE1VbTnZ7V_pad-1" x="1484.84" y="2645.28"/><use xlink:href="#wrYcn8YCWYVE1VbTnZ7V_pad-1" x="1345" y="2475"/><use xlink:href="#wrYcn8YCWYVE1VbTnZ7V_pad-1" x="1366.53" y="2150"/><use xlink:href="#wrYcn8YCWYVE1VbTnZ7V_pad-2" x="1861.97" y="241.14"/><use xlink:href="#wrYcn8YCWYVE1VbTnZ7V_pad-2" x="1960" y="241.14"/><use xlink:href="#wrYcn8YCWYVE1VbTnZ7V_pad-2" x="1960" y="508.86"/><use xlink:href="#wrYcn8YCWYVE1VbTnZ7V_pad-2" x="1861.97" y="508.86"/><use xlink:href="#wrYcn8YCWYVE1VbTnZ7V_pad-2" x="450" y="1669.69"/><use xlink:href="#wrYcn8YCWYVE1VbTnZ7V_pad-2" x="450" y="1759.84"/><use xlink:href="#wrYcn8YCWYVE1VbTnZ7V_pad-2" x="450" y="1850"/><use xlink:href="#wrYcn8YCWYVE1VbTnZ7V_pad-2" x="450" y="1940.16"/><use xlink:href="#wrYcn8YCWYVE1VbTnZ7V_pad-2" x="450" y="2030.31"/><use xlink:href="#wrYcn8YCWYVE1VbTnZ7V_pad-2" x="350" y="1975.2"/><use xlink:href="#wrYcn8YCWYVE1VbTnZ7V_pad-2" x="350" y="1885.04"/><use xlink:href="#wrYcn8YCWYVE1VbTnZ7V_pad-2" x="350" y="1794.88"/><use xlink:href="#wrYcn8YCWYVE1VbTnZ7V_pad-2" x="350" y="1704.72"/><use xlink:href="#wrYcn8YCWYVE1VbTnZ7V_pad-2" x="350" y="1614.57"/><use xlink:href="#wrYcn8YCWYVE1VbTnZ7V_pad-2" x="250" y="1669.69"/><use xlink:href="#wrYcn8YCWYVE1VbTnZ7V_pad-2" x="250" y="1759.84"/><use xlink:href="#wrYcn8YCWYVE1VbTnZ7V_pad-2" x="250" y="1850"/><use xlink:href="#wrYcn8YCWYVE1VbTnZ7V_pad-2" x="250" y="1940.16"/><use xlink:href="#wrYcn8YCWYVE1VbTnZ7V_pad-2" x="250" y="2030.31"/><use xlink:href="#wrYcn8YCWYVE1VbTnZ7V_pad-3" x="1046.57" y="160"/><use xlink:href="#wrYcn8YCWYVE1VbTnZ7V_pad-3" x="1243.43" y="160"/><use xlink:href="#wrYcn8YCWYVE1VbTnZ7V_pad-5" x="1007.21" y="49.76"/><use xlink:href="#wrYcn8YCWYVE1VbTnZ7V_pad-5" x="1282.79" y="49.76"/><use xlink:href="#wrYcn8YCWYVE1VbTnZ7V_pad-6" x="1900" y="2100"/><use xlink:href="#wrYcn8YCWYVE1VbTnZ7V_pad-6" x="1900" y="2250"/><use xlink:href="#wrYcn8YCWYVE1VbTnZ7V_pad-6" x="1900" y="2400"/><use xlink:href="#wrYcn8YCWYVE1VbTnZ7V_pad-6" x="1900" y="2550"/><use xlink:href="#wrYcn8YCWYVE1VbTnZ7V_pad-6" x="1900" y="2700"/><use xlink:href="#wrYcn8YCWYVE1VbTnZ7V_pad-6" x="1900" y="2850"/><use xlink:href="#wrYcn8YCWYVE1VbTnZ7V_pad-6" x="1900" y="3000"/><use xlink:href="#wrYcn8YCWYVE1VbTnZ7V_pad-6" x="1900" y="3150"/><use xlink:href="#wrYcn8YCWYVE1VbTnZ7V_pad-6" x="1900" y="3300"/><use xlink:href="#wrYcn8YCWYVE1VbTnZ7V_pad-6" x="1900" y="3450"/><use xlink:href="#wrYcn8YCWYVE1VbTnZ7V_pad-6" x="1900" y="3600"/><use xlink:href="#wrYcn8YCWYVE1VbTnZ7V_pad-6" x="2100" y="3524.61"/><use xlink:href="#wrYcn8YCWYVE1VbTnZ7V_pad-6" x="2100" y="3374.61"/><use xlink:href="#wrYcn8YCWYVE1VbTnZ7V_pad-6" x="2100" y="3224.61"/><use xlink:href="#wrYcn8YCWYVE1VbTnZ7V_pad-6" x="2100" y="3074.61"/><use xlink:href="#wrYcn8YCWYVE1VbTnZ7V_pad-6" x="2100" y="2924.61"/><use xlink:href="#wrYcn8YCWYVE1VbTnZ7V_pad-6" x="2100" y="2774.61"/><use xlink:href="#wrYcn8YCWYVE1VbTnZ7V_pad-6" x="2100" y="2624.61"/><use xlink:href="#wrYcn8YCWYVE1VbTnZ7V_pad-6" x="2100" y="2474.61"/><use xlink:href="#wrYcn8YCWYVE1VbTnZ7V_pad-6" x="2100" y="2324.61"/><use xlink:href="#wrYcn8YCWYVE1VbTnZ7V_pad-6" x="2100" y="2174.61"/><use xlink:href="#wrYcn8YCWYVE1VbTnZ7V_pad-8" x="2078.5" y="108.86"/><use xlink:href="#wrYcn8YCWYVE1VbTnZ7V_pad-8" x="2110" y="375"/><use xlink:href="#wrYcn8YCWYVE1VbTnZ7V_pad-8" x="2078.5" y="641.14"/><use xlink:href="#wrYcn8YCWYVE1VbTnZ7V_pad-9" x="350" y="1358.07"/><use xlink:href="#wrYcn8YCWYVE1VbTnZ7V_pad-9" x="350" y="2341.93"/><use xlink:href="#wrYcn8YCWYVE1VbTnZ7V_pad-11" x="150" y="150"/><use xlink:href="#wrYcn8YCWYVE1VbTnZ7V_pad-11" x="1600" y="150"/><use xlink:href="#wrYcn8YCWYVE1VbTnZ7V_pad-11" x="1600" y="3850"/><use xlink:href="#wrYcn8YCWYVE1VbTnZ7V_pad-11" x="150" y="3850"/></g><clipPath id="KkkoVMO5YSrEjKHCkpR0_bottom_outline"><path d="M 2300 0 2300 4000 0 4000 0 0 2300 0 M 2292.01 743.31 2292.01 1200 M 2295.04 60.04 2295.04 689.96 M 5 2725 5 3181.69 M 5 3325 5 3781.69 M 2282.01 795 2272.17 795 2272.17 799.92 2273.81 801.56 2277.09 801.56 2278.73 799.92 2278.73 795 M 2273.81 811.4 2272.17 809.76 2272.17 806.48 2273.81 804.84 2280.37 804.84 2282.01 806.48 2282.01 809.76 2280.37 811.4 M 2272.17 814.68 2282.01 814.68 2282.01 819.6 2280.37 821.24 2278.73 821.24 2277.09 819.6 2277.09 814.68 M 2277.09 819.6 2275.45 821.24 2273.81 821.24 2272.17 819.6 2272.17 814.68 M 2272.17 840.92 2272.17 834.36 2282.01 834.36 2282.01 840.92 M 2277.09 834.36 2277.09 837.64 M 2272.17 850.76 2282.01 850.76 2282.01 845.84 2280.37 844.2 2277.09 844.2 2275.45 845.84 2275.45 850.76 M 2285.29 857.32 2285.29 858.96 2283.65 860.59 2275.45 860.59 2275.45 855.68 2277.09 854.04 2280.37 854.04 2282.01 855.68 2282.01 860.59 M 2282.01 868.79 2282.01 865.51 2280.37 863.87 2277.09 863.87 2275.45 865.51 2275.45 868.79 2277.09 870.43 2278.73 870.43 2278.73 863.87 M 15 3130 24.84 3130 24.84 3125.08 23.2 3123.44 19.92 3123.44 18.28 3125.08 18.28 3130 M 23.2 3113.6 24.84 3115.24 24.84 3118.52 23.2 3120.16 16.64 3120.16 15 3118.52 15 3115.24 16.64 3113.6 M 24.84 3110.32 15 3110.32 15 3105.4 16.64 3103.76 18.28 3103.76 19.92 3105.4 19.92 3110.32 M 19.92 3105.4 21.56 3103.76 23.2 3103.76 24.84 3105.4 24.84 3110.32 M 24.84 3084.08 24.84 3090.64 15 3090.64 15 3084.08 M 19.92 3090.64 19.92 3087.36 M 24.84 3074.24 15 3074.24 15 3079.16 16.64 3080.8 19.92 3080.8 21.56 3079.16 21.56 3074.24 M 11.72 3067.68 11.72 3066.04 13.36 3064.4 21.56 3064.4 21.56 3069.32 19.92 3070.96 16.64 3070.96 15 3069.32 15 3064.4 M 15 3056.21 15 3059.48 16.64 3061.13 19.92 3061.13 21.56 3059.48 21.56 3056.21 19.92 3054.56 18.28 3054.56 18.28 3061.13 M 15 3730 24.84 3730 24.84 3725.08 23.2 3723.44 19.92 3723.44 18.28 3725.08 18.28 3730 M 23.2 3713.6 24.84 3715.24 24.84 3718.52 23.2 3720.16 16.64 3720.16 15 3718.52 15 3715.24 16.64 3713.6 M 24.84 3710.32 15 3710.32 15 3705.4 16.64 3703.76 18.28 3703.76 19.92 3705.4 19.92 3710.32 M 19.92 3705.4 21.56 3703.76 23.2 3703.76 24.84 3705.4 24.84 3710.32 M 24.84 3684.08 24.84 3690.64 15 3690.64 15 3684.08 M 19.92 3690.64 19.92 3687.36 M 24.84 3674.24 15 3674.24 15 3679.16 16.64 3680.8 19.92 3680.8 21.56 3679.16 21.56 3674.24 M 11.72 3667.68 11.72 3666.04 13.36 3664.41 21.56 3664.41 21.56 3669.32 19.92 3670.96 16.64 3670.96 15 3669.32 15 3664.41 M 15 3656.2 15 3659.49 16.64 3661.12 19.92 3661.12 21.56 3659.49 21.56 3656.2 19.92 3654.57 18.28 3654.57 18.28 3661.12 M 2271.42 638.78 2281.26 638.78 2281.26 633.86 2279.62 632.22 2276.34 632.22 2274.7 633.86 2274.7 638.78 M 2279.62 622.38 2281.26 624.02 2281.26 627.3 2279.62 628.94 2273.06 628.94 2271.42 627.3 2271.42 624.02 2273.06 622.38 M 2281.26 619.1 2271.42 619.1 2271.42 614.18 2273.06 612.54 2274.7 612.54 2276.34 614.18 2276.34 619.1 M 2276.34 614.18 2277.98 612.54 2279.62 612.54 2281.26 614.18 2281.26 619.1 M 2281.26 592.86 2281.26 599.42 2271.42 599.42 2271.42 592.86 M 2276.34 599.42 2276.34 596.14 M 2281.26 583.02 2271.42 583.02 2271.42 587.94 2273.06 589.58 2276.34 589.58 2277.98 587.94 2277.98 583.02 M 2268.14 576.46 2268.14 574.82 2269.78 573.18 2277.98 573.18 2277.98 578.1 2276.34 579.74 2273.06 579.74 2271.42 578.1 2271.42 573.18 M 2271.42 564.98 2271.42 568.26 2273.06 569.9 2276.34 569.9 2277.98 568.26 2277.98 564.98 2276.34 563.35 2274.7 563.35 2274.7 569.9" fill="none" stroke-width="10"/></clipPath><mask id="KkkoVMO5YSrEjKHCkpR0_bottom_mech-mask"><g fill="#000" stroke="#000"><rect x="0" y="0" width="2300" height="4000" fill="#fff"/><use xlink:href="#KkkoVMO5YSrEjKHCkpR0_bottom_drill1"/><use xlink:href="#KkkoVMO5YSrEjKHCkpR0_bottom_drill2"/><use xlink:href="#KkkoVMO5YSrEjKHCkpR0_bottom_drill3"/></g></mask><mask id="KkkoVMO5YSrEjKHCkpR0_bottom_cf-mask"><g fill="#fff" stroke="#fff"><use xlink:href="#KkkoVMO5YSrEjKHCkpR0_bottom_soldermask"/></g></mask><mask id="KkkoVMO5YSrEjKHCkpR0_bottom_sm-mask"><g fill="#000" stroke="#000"><rect x="0" y="0" width="2300" height="4000" fill="#fff"/><use xlink:href="#KkkoVMO5YSrEjKHCkpR0_bottom_soldermask"/></g></mask></defs><g transform="translate(0,4000) scale(1,-1)"><g mask="url(#KkkoVMO5YSrEjKHCkpR0_bottom_mech-mask)" clip-path="url(#KkkoVMO5YSrEjKHCkpR0_bottom_outline)" transform="translate(2300,0) scale(-1,1)"><rect x="0" y="0" width="2300" height="4000" fill="currentColor" class="KkkoVMO5YSrEjKHCkpR0_fr4"/><use xlink:href="#KkkoVMO5YSrEjKHCkpR0_bottom_copper" fill="currentColor" stroke="currentColor" class="KkkoVMO5YSrEjKHCkpR0_cu"/><use xlink:href="#KkkoVMO5YSrEjKHCkpR0_bottom_copper" fill="currentColor" stroke="currentColor" class="KkkoVMO5YSrEjKHCkpR0_cf" mask="url(#KkkoVMO5YSrEjKHCkpR0_bottom_cf-mask)"/><g mask="url(#KkkoVMO5YSrEjKHCkpR0_bottom_sm-mask)"><rect x="0" y="0" width="2300" height="4000" fill="currentColor" class="KkkoVMO5YSrEjKHCkpR0_sm"/></g></g></g></svg>