<svg version="1.1" xmlns="http://www.w3.org/2000/svg" xmlns:xlink="http://www.w3.org/1999/xlink" stroke-linecap="round" stroke-linejoin="round" stroke-width="0" fill-rule="evenodd" width="2.2151199999999998in" height="3.86469in" viewBox="40.945 15.31 2215.12 3864.69" id="QRXRgtn50Quk4mhCUqSo"><defs><rect x="-12.205" y="-12.205" width="24.41" height="24.41" id="QRXRgtn50Quk4mhCUqSo_pad-41"/><rect x="-37.4" y="-11.81" width="74.8" height="23.62" rx="11.81" ry="11.81" id="QRXRgtn50Quk4mhCUqSo_pad-42"/><rect x="-20.67" y="-25.59" width="41.34" height="51.18" id="QRXRgtn50Quk4mhCUqSo_pad-43"/><g id="QRXRgtn50Quk4mhCUqSo_pad-44"><polygon points="10.335,-25.59 10.335,25.59 -10.335,25.59 -10.335,-25.59"/><polygon points="20.67,-15.255 20.67,15.255 -20.67,15.255 -20.67,-15.255"/><circle cx="10.34" cy="15.26" r="10.335"/><circle cx="10.34" cy="-15.26" r="10.335"/><circle cx="-10.34" cy="-15.26" r="10.335"/><circle cx="-10.34" cy="15.26" r="10.335"/></g><rect x="-10.825" y="-10.825" width="21.65" height="21.65" id="QRXRgtn50Quk4mhCUqSo_pad-45"/><rect x="-12.205" y="-12.205" width="24.41" height="24.41" id="QRXRgtn50Quk4mhCUqSo_pad-46"/><rect x="-10.825" y="-10.825" width="21.65" height="21.65" id="QRXRgtn50Quk4mhCUqSo_pad-47"/><rect x="-28.545" y="-11.81" width="57.09" height="23.62" rx="11.81" ry="11.81" id="QRXRgtn50Quk4mhCUqSo_pad-48"/><rect x="-15.75" y="-52.165" width="31.5" height="104.33" id="QRXRgtn50Quk4mhCUqSo_pad-49"/><rect x="-21.655" y="-33.465" width="43.31" height="66.93" id="QRXRgtn50Quk4mhCUqSo_pad-50"/><rect x="-16.735" y="-18.7" width="33.47" height="37.4" id="QRXRgtn50Quk4mhCUqSo_pad-51"/><rect x="-7.875" y="-29.53" width="15.75" height="59.06" id="QRXRgtn50Quk4mhCUqSo_pad-52"/><rect x="-27.56" y="-8.86" width="55.12" height="17.72" rx="8.86" ry="8.86" id="QRXRgtn50Quk4mhCUqSo_pad-53"/><circle cx="0" cy="0" r="34.45" id="QRXRgtn50Quk4mhCUqSo_pad-57"/><circle cx="0" cy="0" r="27.56" id="QRXRgtn50Quk4mhCUqSo_pad-58"/><circle cx="0" cy="0" r="29.53" id="QRXRgtn50Quk4mhCUqSo_pad-59"/><rect x="-59.055" y="-39.37" width="118.11" height="78.74" rx="39.37" ry="39.37" id="QRXRgtn50Quk4mhCUqSo_pad-60"/><circle cx="0" cy="0" r="59.055" id="QRXRgtn50Quk4mhCUqSo_pad-61"/><circle cx="0" cy="0" r="74.805" id="QRXRgtn50Quk4mhCUqSo_pad-62"/><rect x="-27.56" y="-27.56" width="55.12" height="55.12" id="QRXRgtn50Quk4mhCUqSo_pad-63"/><circle cx="0" cy="0" r="30" id="QRXRgtn50Quk4mhCUqSo_pad-64"/><circle cx="0" cy="0" r="35.435" id="QRXRgtn50Quk4mhCUqSo_pad-65"/><circle cx="0" cy="0" r="98.425" id="QRXRgtn50Quk4mhCUqSo_pad-66"/><circle cx="0" cy="0" r="12.5" id="QRXRgtn50Quk4mhCUqSo_pad-67"/></defs><g transform="translate(0,3895.31) scale(1,-1)" fill="currentColor" stroke="currentColor"><path d="M 1196.18 160 1243.43 160 M 1170.59 160 1196.18 160 M 1381.89 2475 1381.89 2500 M 1381.89 2445 1381.89 2475 M 1345 2475 1381.89 2475 M 1300 2460 1345 2415 1400 2415 M 1300 2460 1300 2530 M 1418.11 2493.11 1418.11 2500 M 1418.11 2433.11 1418.11 2445 1418.11 2493.11 M 1400 2415 1418.11 2433.11 M 1300 2530 1300 2531.89 M 1207.28 2575 1214.17 2568.11 1300 2568.11 1300 2631.3 M 1363.58 2565 1363.58 2572.44 M 1363.58 2565 1381.89 2546.69 M 1381.89 2500 1381.89 2546.69 M 1436.42 2518.31 1436.42 2554.72 M 1418.11 2500 1436.42 2518.31 M 1381.89 1775 1381.89 1835.2 1418.7 1872.01 1418.7 1875 M 1145 2525 1207.28 2525 M 873.43 2000 873.43 2016.6 M 848.39 1875 912.99 1875 M 830 1856.61 848.39 1875 M 830 1794.8 830 1856.61 M 830 1794.8 899.8 1725 912.99 1725 M 912.99 1675 912.99 1725 M 1118.11 2733.11 1118.11 2750 M 1105 2720 1118.11 2733.11 M 960 2720 1105 2720 M 935.43 2695.43 960 2720 M 935.43 2660 935.43 2695.43 M 935.43 2660 970.43 2625 992.72 2625 M 1145 2675 1145 2723.11 M 1118.11 2750 1145 2723.11 M 1381.89 2050 1381.89 2085.12 M 1281.89 2150 1281.89 2153.74 1308.15 2180 1400 2180 1420 2160 M 1420 2123.23 1420 2160 M 1381.89 2085.12 1420 2123.23 M 1363.58 2572.44 1436.42 2645.28 M 1418.11 2663.58 1436.42 2645.28 M 1418.11 2663.58 1418.11 2700 M 1436.42 2645.28 1484.84 2645.28 M 1081.89 2750 1081.89 2798.42 M 944.29 2525 992.72 2525 M 944.29 2575 992.72 2575 M 935.43 2161.61 983.86 2161.61 M 983.86 2148.82 983.86 2174.41 M 1265.13 2126.8 1311.79 2126.8 M 1315 2146.89 1318.11 2150 M 1315 2130 1315 2146.89 M 1311.79 2126.8 1315 2130 M 1258.68 2133.24 1265.13 2126.8 M 1258.68 2133.24 1258.68 2144.58 M 1254.44 2148.82 1258.68 2144.58 M 1216.14 2148.82 1254.44 2148.82 M 1318.11 2150 1366.53 2150 M 1287.01 1725 1335.43 1725 M 864.57 1825 912.99 1825 M 918.11 1950 966.53 1950 M 926.58 2000 975 2000 M 1418.11 1775 1418.11 1823.43 M 1418.7 1625 1418.7 1673.42 M 1326.58 850 1375 850 M 925 850 973.42 850 M 1768.7 3150 1900 3150 M 1768.7 2850 1900 2850 M 1768.7 2550 1900 2550 M 1768.7 2250 1900 2250" fill="none" stroke-width="10"/><use xlink:href="#QRXRgtn50Quk4mhCUqSo_pad-41" x="1418.11" y="2445"/><use xlink:href="#QRXRgtn50Quk4mhCUqSo_pad-41" x="1381.89" y="2445"/><use xlink:href="#QRXRgtn50Quk4mhCUqSo_pad-41" x="1418.11" y="2500"/><use xlink:href="#QRXRgtn50Quk4mhCUqSo_pad-41" x="1381.89" y="2500"/><use xlink:href="#QRXRgtn50Quk4mhCUqSo_pad-41" x="881.89" y="1950"/><use xlink:href="#QRXRgtn50Quk4mhCUqSo_pad-41" x="918.11" y="1950"/><use xlink:href="#QRXRgtn50Quk4mhCUqSo_pad-41" x="1381.89" y="2700"/><use xlink:href="#QRXRgtn50Quk4mhCUqSo_pad-41" x="1418.11" y="2700"/><use xlink:href="#QRXRgtn50Quk4mhCUqSo_pad-41" x="1131.89" y="850"/><use xlink:href="#QRXRgtn50Quk4mhCUqSo_pad-41" x="1168.11" y="850"/><use xlink:href="#QRXRgtn50Quk4mhCUqSo_pad-41" x="1418.11" y="1775"/><use xlink:href="#QRXRgtn50Quk4mhCUqSo_pad-41" x="1381.89" y="1775"/><use xlink:href="#QRXRgtn50Quk4mhCUqSo_pad-41" x="631.89" y="1450"/><use xlink:href="#QRXRgtn50Quk4mhCUqSo_pad-41" x="668.11" y="1450"/><use xlink:href="#QRXRgtn50Quk4mhCUqSo_pad-41" x="631.89" y="1500"/><use xlink:href="#QRXRgtn50Quk4mhCUqSo_pad-41" x="668.11" y="1500"/><use xlink:href="#QRXRgtn50Quk4mhCUqSo_pad-41" x="631.89" y="1550"/><use xlink:href="#QRXRgtn50Quk4mhCUqSo_pad-41" x="668.11" y="1550"/><use xlink:href="#QRXRgtn50Quk4mhCUqSo_pad-41" x="831.89" y="2150"/><use xlink:href="#QRXRgtn50Quk4mhCUqSo_pad-41" x="868.11" y="2150"/><use xlink:href="#QRXRgtn50Quk4mhCUqSo_pad-41" x="831.89" y="2200"/><use xlink:href="#QRXRgtn50Quk4mhCUqSo_pad-41" x="868.11" y="2200"/><use xlink:href="#QRXRgtn50Quk4mhCUqSo_pad-41" x="1318.11" y="2150"/><use xlink:href="#QRXRgtn50Quk4mhCUqSo_pad-41" x="1281.89" y="2150"/><use xlink:href="#QRXRgtn50Quk4mhCUqSo_pad-41" x="868.11" y="2250"/><use xlink:href="#QRXRgtn50Quk4mhCUqSo_pad-41" x="831.89" y="2250"/><use xlink:href="#QRXRgtn50Quk4mhCUqSo_pad-41" x="868.11" y="2300"/><use xlink:href="#QRXRgtn50Quk4mhCUqSo_pad-41" x="831.89" y="2300"/><use xlink:href="#QRXRgtn50Quk4mhCUqSo_pad-41" x="1118.11" y="2750"/><use xlink:href="#QRXRgtn50Quk4mhCUqSo_pad-41" x="1081.89" y="2750"/><use xlink:href="#QRXRgtn50Quk4mhCUqSo_pad-42" x="1287.01" y="1525"/><use xlink:href="#QRXRgtn50Quk4mhCUqSo_pad-42" x="1287.01" y="1575"/><use xlink:href="#QRXRgtn50Quk4mhCUqSo_pad-42" x="1287.01" y="1625"/><use xlink:href="#QRXRgtn50Quk4mhCUqSo_pad-42" x="1287.01" y="1675"/><use xlink:href="#QRXRgtn50Quk4mhCUqSo_pad-42" x="1287.01" y="1725"/><use xlink:href="#QRXRgtn50Quk4mhCUqSo_pad-42" x="1287.01" y="1775"/><use xlink:href="#QRXRgtn50Quk4mhCUqSo_pad-42" x="1287.01" y="1825"/><use xlink:href="#QRXRgtn50Quk4mhCUqSo_pad-42" x="1287.01" y="1875"/><use xlink:href="#QRXRgtn50Quk4mhCUqSo_pad-42" x="912.99" y="1525"/><use xlink:href="#QRXRgtn50Quk4mhCUqSo_pad-42" x="912.99" y="1575"/><use xlink:href="#QRXRgtn50Quk4mhCUqSo_pad-42" x="912.99" y="1625"/><use xlink:href="#QRXRgtn50Quk4mhCUqSo_pad-42" x="912.99" y="1675"/><use xlink:href="#QRXRgtn50Quk4mhCUqSo_pad-42" x="912.99" y="1725"/><use xlink:href="#QRXRgtn50Quk4mhCUqSo_pad-42" x="912.99" y="1775"/><use xlink:href="#QRXRgtn50Quk4mhCUqSo_pad-42" x="912.99" y="1825"/><use xlink:href="#QRXRgtn50Quk4mhCUqSo_pad-42" x="912.99" y="1875"/><use xlink:href="#QRXRgtn50Quk4mhCUqSo_pad-43" x="1436.42" y="2554.72"/><use xlink:href="#QRXRgtn50Quk4mhCUqSo_pad-44" x="1436.42" y="2645.28"/><use xlink:href="#QRXRgtn50Quk4mhCUqSo_pad-44" x="1363.58" y="2554.72"/><use xlink:href="#QRXRgtn50Quk4mhCUqSo_pad-44" x="1363.58" y="2645.28"/><use xlink:href="#QRXRgtn50Quk4mhCUqSo_pad-45" x="1381.3" y="1875"/><use xlink:href="#QRXRgtn50Quk4mhCUqSo_pad-45" x="1418.7" y="1875"/><use xlink:href="#QRXRgtn50Quk4mhCUqSo_pad-45" x="1500" y="800"/><use xlink:href="#QRXRgtn50Quk4mhCUqSo_pad-45" x="1462.6" y="800"/><use xlink:href="#QRXRgtn50Quk4mhCUqSo_pad-45" x="1418.7" y="1625"/><use xlink:href="#QRXRgtn50Quk4mhCUqSo_pad-45" x="1381.3" y="1625"/><use xlink:href="#QRXRgtn50Quk4mhCUqSo_pad-45" x="1418.7" y="1575"/><use xlink:href="#QRXRgtn50Quk4mhCUqSo_pad-45" x="1381.3" y="1575"/><use xlink:href="#QRXRgtn50Quk4mhCUqSo_pad-45" x="1768.7" y="2850"/><use xlink:href="#QRXRgtn50Quk4mhCUqSo_pad-45" x="1731.3" y="2850"/><use xlink:href="#QRXRgtn50Quk4mhCUqSo_pad-45" x="1768.7" y="3150"/><use xlink:href="#QRXRgtn50Quk4mhCUqSo_pad-45" x="1731.3" y="3150"/><use xlink:href="#QRXRgtn50Quk4mhCUqSo_pad-45" x="1500" y="950"/><use xlink:href="#QRXRgtn50Quk4mhCUqSo_pad-45" x="1462.6" y="950"/><use xlink:href="#QRXRgtn50Quk4mhCUqSo_pad-45" x="668.7" y="1700"/><use xlink:href="#QRXRgtn50Quk4mhCUqSo_pad-45" x="631.3" y="1700"/><use xlink:href="#QRXRgtn50Quk4mhCUqSo_pad-45" x="668.7" y="1750"/><use xlink:href="#QRXRgtn50Quk4mhCUqSo_pad-45" x="631.3" y="1750"/><use xlink:href="#QRXRgtn50Quk4mhCUqSo_pad-45" x="631.3" y="1650"/><use xlink:href="#QRXRgtn50Quk4mhCUqSo_pad-45" x="668.7" y="1650"/><use xlink:href="#QRXRgtn50Quk4mhCUqSo_pad-45" x="1731.3" y="2250"/><use xlink:href="#QRXRgtn50Quk4mhCUqSo_pad-45" x="1768.7" y="2250"/><use xlink:href="#QRXRgtn50Quk4mhCUqSo_pad-45" x="1731.3" y="2550"/><use xlink:href="#QRXRgtn50Quk4mhCUqSo_pad-45" x="1768.7" y="2550"/><use xlink:href="#QRXRgtn50Quk4mhCUqSo_pad-45" x="468.7" y="2950"/><use xlink:href="#QRXRgtn50Quk4mhCUqSo_pad-45" x="431.3" y="2950"/><use xlink:href="#QRXRgtn50Quk4mhCUqSo_pad-45" x="468.7" y="3550"/><use xlink:href="#QRXRgtn50Quk4mhCUqSo_pad-45" x="431.3" y="3550"/><use xlink:href="#QRXRgtn50Quk4mhCUqSo_pad-45" x="1831.3" y="1450"/><use xlink:href="#QRXRgtn50Quk4mhCUqSo_pad-45" x="1868.7" y="1450"/><use xlink:href="#QRXRgtn50Quk4mhCUqSo_pad-46" x="1300" y="2531.89"/><use xlink:href="#QRXRgtn50Quk4mhCUqSo_pad-46" x="1300" y="2568.11"/><use xlink:href="#QRXRgtn50Quk4mhCUqSo_pad-47" x="1300" y="2631.3"/><use xlink:href="#QRXRgtn50Quk4mhCUqSo_pad-47" x="1300" y="2668.7"/><use xlink:href="#QRXRgtn50Quk4mhCUqSo_pad-48" x="1207.28" y="2525"/><use xlink:href="#QRXRgtn50Quk4mhCUqSo_pad-48" x="1207.28" y="2575"/><use xlink:href="#QRXRgtn50Quk4mhCUqSo_pad-48" x="1207.28" y="2625"/><use xlink:href="#QRXRgtn50Quk4mhCUqSo_pad-48" x="1207.28" y="2675"/><use xlink:href="#QRXRgtn50Quk4mhCUqSo_pad-48" x="992.72" y="2525"/><use xlink:href="#QRXRgtn50Quk4mhCUqSo_pad-48" x="992.72" y="2575"/><use xlink:href="#QRXRgtn50Quk4mhCUqSo_pad-48" x="992.72" y="2625"/><use xlink:href="#QRXRgtn50Quk4mhCUqSo_pad-48" x="992.72" y="2675"/><use xlink:href="#QRXRgtn50Quk4mhCUqSo_pad-49" x="1586.02" y="800"/><use xlink:href="#QRXRgtn50Quk4mhCUqSo_pad-49" x="1713.98" y="800"/><use xlink:href="#QRXRgtn50Quk4mhCUqSo_pad-49" x="1586.02" y="950"/><use xlink:href="#QRXRgtn50Quk4mhCUqSo_pad-49" x="1713.98" y="950"/><use xlink:href="#QRXRgtn50Quk4mhCUqSo_pad-50" x="1096.85" y="750"/><use xlink:href="#QRXRgtn50Quk4mhCUqSo_pad-50" x="1203.15" y="750"/><use xlink:href="#QRXRgtn50Quk4mhCUqSo_pad-51" x="1326.58" y="850"/><use xlink:href="#QRXRgtn50Quk4mhCUqSo_pad-51" x="1273.42" y="850"/><use xlink:href="#QRXRgtn50Quk4mhCUqSo_pad-51" x="973.42" y="850"/><use xlink:href="#QRXRgtn50Quk4mhCUqSo_pad-51" x="1026.57" y="850"/><use xlink:href="#QRXRgtn50Quk4mhCUqSo_pad-51" x="873.43" y="2000"/><use xlink:href="#QRXRgtn50Quk4mhCUqSo_pad-51" x="926.58" y="2000"/><use xlink:href="#QRXRgtn50Quk4mhCUqSo_pad-52" x="1145" y="160"/><use xlink:href="#QRXRgtn50Quk4mhCUqSo_pad-52" x="1170.59" y="160"/><use xlink:href="#QRXRgtn50Quk4mhCUqSo_pad-52" x="1119.41" y="160"/><use xlink:href="#QRXRgtn50Quk4mhCUqSo_pad-52" x="1093.82" y="160"/><use xlink:href="#QRXRgtn50Quk4mhCUqSo_pad-52" x="1196.18" y="160"/><use xlink:href="#QRXRgtn50Quk4mhCUqSo_pad-53" x="983.86" y="2276.77"/><use xlink:href="#QRXRgtn50Quk4mhCUqSo_pad-53" x="983.86" y="2251.18"/><use xlink:href="#QRXRgtn50Quk4mhCUqSo_pad-53" x="983.86" y="2225.59"/><use xlink:href="#QRXRgtn50Quk4mhCUqSo_pad-53" x="983.86" y="2200"/><use xlink:href="#QRXRgtn50Quk4mhCUqSo_pad-53" x="983.86" y="2174.41"/><use xlink:href="#QRXRgtn50Quk4mhCUqSo_pad-53" x="983.86" y="2148.82"/><use xlink:href="#QRXRgtn50Quk4mhCUqSo_pad-53" x="983.86" y="2123.23"/><use xlink:href="#QRXRgtn50Quk4mhCUqSo_pad-53" x="1216.14" y="2276.77"/><use xlink:href="#QRXRgtn50Quk4mhCUqSo_pad-53" x="1216.14" y="2251.18"/><use xlink:href="#QRXRgtn50Quk4mhCUqSo_pad-53" x="1216.14" y="2225.59"/><use xlink:href="#QRXRgtn50Quk4mhCUqSo_pad-53" x="1216.14" y="2200"/><use xlink:href="#QRXRgtn50Quk4mhCUqSo_pad-53" x="1216.14" y="2174.41"/><use xlink:href="#QRXRgtn50Quk4mhCUqSo_pad-53" x="1216.14" y="2148.82"/><use xlink:href="#QRXRgtn50Quk4mhCUqSo_pad-53" x="1216.14" y="2123.23"/><path d="M 1868.7 1450 1910 1450 2020 1340 M 2020 975 2020 1340 M 1861.97 508.86 1861.97 802.01 M 1713.98 950 1861.97 802.01 M 1713.98 389.13 1861.97 241.14 M 1713.98 389.13 1713.98 800 M 1093.82 746.97 1096.85 750 M 1256.3 2625 1300 2668.7 M 1331.3 1825 1381.3 1875 M 1287.01 1825 1331.3 1825 M 300 1610.04 300 1800 M 250 1850 300 1800 M 1070 2395 1080 2395 M 1042.5 2367.5 1070 2395 M 1047.5 2400.68 1047.5 2642.5 M 1028.5 2381.68 1047.5 2400.68 M 1028.5 1858.5 1028.5 2381.68 M 1015 2675 1047.5 2642.5 M 992.72 2675 1015 2675 M 1105 1940 1326.65 1940 M 1042.5 2002.5 1105 1940 M 1042.5 2002.5 1042.5 2367.5 M 945 1775 1028.5 1858.5 M 1460 1760 1460 1940.16 M 1381.3 1681.3 1460 1760 M 1381.3 1625 1381.3 1681.3 M 896.82 2395 1010 2395 M 845.91 2344.08 896.82 2395 M 845.91 2314.02 845.91 2344.08 M 831.89 2300 845.91 2314.02 M 868.11 2250 982.68 2250 M 960.63 2300 983.86 2276.77 M 868.11 2300 960.63 2300 M 1145 2675 1207.28 2675 M 884.8 2150 934.8 2200 M 868.11 2150 884.8 2150 M 934.8 2200 983.86 2200 M 1775 1506.3 1831.3 1450 M 1775 1506.3 1775 1925 M 1731.3 2093.7 1775 2050 M 1731.3 2093.7 1731.3 2250 M 1704.53 2276.77 1731.3 2250 M 1216.14 2276.77 1704.53 2276.77 M 1745 3215 1995 3215 M 1731.3 3201.3 1745 3215 M 1731.3 3150 1731.3 3201.3 M 1995 3215 2040 3170 M 1985.3 2615 2010.3 2590 M 1740 2615 1985.3 2615 M 1731.3 2606.3 1740 2615 M 1745 2915 1995 2915 M 1731.3 2901.3 1745 2915 M 1731.3 2850 1731.3 2901.3 M 1731.3 2550 1731.3 2606.3 M 2010.3 2054.9 2010.3 2590 M 1968.4 2013 2010.3 2054.9 M 1731.6 2013 1968.4 2013 M 1995 2915 2024.3 2885.7 M 1974.2 1999 2024.3 2049.1 2024.3 2885.7 M 1493.42 2251.18 1731.6 2013 M 1216.14 2251.18 1493.42 2251.18 M 1725.8 1999 1974.2 1999 M 2040 2045 2040 3170 M 1980 1985 2040 2045 M 1499.21 2225.59 1725.8 1999 M 1216.14 2225.59 1499.21 2225.59 M 1720 1985 1980 1985 M 1505 2200 1720 1985 M 1216.14 2200 1505 2200 M 1257.48 2174.41 1281.89 2150 M 1216.14 2174.41 1257.48 2174.41 M 1026.57 850 1131.89 850 M 1168.11 850 1273.42 850 M 1168.11 850 1203.15 814.96 M 1203.15 750 1203.15 814.96 M 1096.85 750 1098.82 748.03 M 1900 3595 1900 3600 M 1900 3595 1960 3535 M 1960 3419.61 1960 3535 M 1915 3374.61 1960 3419.61 M 984.61 3374.61 1915 3374.61 M 560 2950 984.61 3374.61 M 468.7 2950 560 2950 M 1800 3550 1900 3450 M 468.7 3550 1800 3550 M 277.01 3550 431.3 3550 M 277.01 2950 431.3 2950 M 1500 800 1586.02 800 M 1500 950 1586.02 950 M 1340 1072.6 1340 1536.57 M 1340 1072.6 1462.6 950 M 1287.01 1052.99 1462.6 877.4 M 1462.6 800 1462.6 877.4 M 1287.01 1052.99 1287.01 1525 M 1324.76 1551.81 1340 1536.57 M 1235 1566.81 1250 1551.81 1324.76 1551.81 M 1235 1566.81 1235 1605 1255 1625 1287.01 1625 M 1381.3 1625 1418.7 1587.6 M 1418.7 1575 1418.7 1587.6 M 1287.01 1575 1381.3 1575 M 912.99 1775 945 1775 M 1381.89 2696.89 1381.89 2700 M 1363.58 2678.58 1381.89 2696.89 M 1363.58 2645.28 1363.58 2678.58 M 1340.16 2668.7 1363.58 2645.28 M 1300 2668.7 1340.16 2668.7 M 1207.28 2625 1256.3 2625 M 873.43 1958.46 873.43 2000 M 873.43 1958.46 881.89 1950 M 881.89 1906.1 881.89 1950 M 881.89 1906.1 912.99 1875 M 983.27 2225 983.86 2225.59 M 940 2225 983.27 2225 M 915 2200 940 2225 M 868.11 2200 915 2200 M 982.68 2250 983.86 2251.18 M 575 1925 575 2130 M 1117.37 1875 1287.01 1875 M 1029 1786.63 1117.37 1875 M 1029 1564 1029 1786.63 M 1090 1825 1287.01 1825 M 1045 1780 1090 1825 M 1045 1557.37 1045 1780 M 870 1405 1029 1564 M 876.63 1389 1045 1557.37 M 287.41 1600 498.41 1389 M 250 1600 287.41 1600 M 205 1645 250 1600 M 205 1645 205 1895.16 M 498.41 1389 876.63 1389 M 505.04 1405 870 1405 M 300 1610.04 505.04 1405 M 205 1895.16 250 1940.16 M 515.16 1759.84 575 1700 600 1700 M 450 1759.84 515.16 1759.84 M 550 1900 575 1925 M 575 2130 695 2250 831.89 2250 M 600 1700 631.3 1700 M 600 1700 600 1825 M 600 1900 600 2100 700 2200 831.89 2200 M 710 2150 831.89 2150 M 631.3 2071.3 710 2150 M 631.3 1850 631.3 2071.3 M 631.3 1750 631.3 1850 M 450 1850 631.3 1850 M 837.99 1450 912.99 1525 M 668.11 1450 837.99 1450 M 825 1575 912.99 1575 M 750 1500 825 1575 M 668.11 1500 750 1500 M 743.11 1625 912.99 1625 M 668.11 1550 743.11 1625 M 668.7 1650 700 1650 M 668.7 1700 700 1700 M 668.7 1750 700 1750 M 668.7 1650 668.7 1700 M 580.2 1450 631.89 1450 M 396 1634.2 580.2 1450 M 396 1634.2 396 1758.96 450 1812.96 450 1850 M 550 1500 631.89 1500 M 410 1640 550 1500 M 410 1640 410 1725 444.84 1759.84 450 1759.84 M 631.3 1550.59 631.89 1550 M 631.3 1550.59 631.3 1650 M 611.61 1669.69 631.3 1650 M 450 1669.69 611.61 1669.69" fill="none" stroke-width="8"/><path d="M 1093.82 160 1093.82 746.97" fill="none" stroke-width="20"/><path d="M 1145 2050 1381.89 2050 1418.7 2013.19 M 1418.7 1875 1418.7 2013.19 M 1145 2525 1145 2675 M 1145 2050 1145 2525 M 906.82 2050 1000 2050 M 873.43 2016.6 906.82 2050 M 1065 2050 1145 2050 M 1287.01 1775 1381.89 1775 M 1095 1775 1287.01 1775 M 1062.5 1742.5 1095 1775 M 1062.5 1550.12 1062.5 1742.5 M 1026.57 1514.2 1062.5 1550.12 M 1026.57 850 1026.57 1514.2" fill="none" stroke-width="15"/><use xlink:href="#QRXRgtn50Quk4mhCUqSo_pad-57" x="1282.79" y="49.76"/><use xlink:href="#QRXRgtn50Quk4mhCUqSo_pad-57" x="1007.21" y="49.76"/><use xlink:href="#QRXRgtn50Quk4mhCUqSo_pad-58" x="1243.43" y="160"/><use xlink:href="#QRXRgtn50Quk4mhCUqSo_pad-58" x="450" y="1759.84"/><use xlink:href="#QRXRgtn50Quk4mhCUqSo_pad-58" x="450" y="1850"/><use xlink:href="#QRXRgtn50Quk4mhCUqSo_pad-58" x="250" y="1850"/><use xlink:href="#QRXRgtn50Quk4mhCUqSo_pad-58" x="250" y="1940.16"/><use xlink:href="#QRXRgtn50Quk4mhCUqSo_pad-58" x="250" y="1669.69"/><use xlink:href="#QRXRgtn50Quk4mhCUqSo_pad-58" x="250" y="1759.84"/><use xlink:href="#QRXRgtn50Quk4mhCUqSo_pad-58" x="450" y="1940.16"/><use xlink:href="#QRXRgtn50Quk4mhCUqSo_pad-58" x="350" y="1885.04"/><use xlink:href="#QRXRgtn50Quk4mhCUqSo_pad-58" x="250" y="2030.31"/><use xlink:href="#QRXRgtn50Quk4mhCUqSo_pad-58" x="450" y="2030.31"/><use xlink:href="#QRXRgtn50Quk4mhCUqSo_pad-58" x="350" y="1614.57"/><use xlink:href="#QRXRgtn50Quk4mhCUqSo_pad-58" x="350" y="1704.72"/><use xlink:href="#QRXRgtn50Quk4mhCUqSo_pad-58" x="350" y="1794.88"/><use xlink:href="#QRXRgtn50Quk4mhCUqSo_pad-58" x="350" y="1975.2"/><use xlink:href="#QRXRgtn50Quk4mhCUqSo_pad-59" x="1046.57" y="160"/><use xlink:href="#QRXRgtn50Quk4mhCUqSo_pad-59" x="1960" y="508.86"/><use xlink:href="#QRXRgtn50Quk4mhCUqSo_pad-59" x="1960" y="241.14"/><use xlink:href="#QRXRgtn50Quk4mhCUqSo_pad-59" x="1861.97" y="508.86"/><use xlink:href="#QRXRgtn50Quk4mhCUqSo_pad-59" x="1861.97" y="241.14"/><use xlink:href="#QRXRgtn50Quk4mhCUqSo_pad-60" x="2020" y="975"/><use xlink:href="#QRXRgtn50Quk4mhCUqSo_pad-60" x="277.01" y="2950"/><use xlink:href="#QRXRgtn50Quk4mhCUqSo_pad-60" x="277.01" y="3550"/><use xlink:href="#QRXRgtn50Quk4mhCUqSo_pad-61" x="2197.01" y="975"/><use xlink:href="#QRXRgtn50Quk4mhCUqSo_pad-61" x="100" y="2950"/><use xlink:href="#QRXRgtn50Quk4mhCUqSo_pad-61" x="100" y="3550"/><use xlink:href="#QRXRgtn50Quk4mhCUqSo_pad-62" x="2110" y="375"/><use xlink:href="#QRXRgtn50Quk4mhCUqSo_pad-62" x="2078.5" y="641.14"/><use xlink:href="#QRXRgtn50Quk4mhCUqSo_pad-62" x="2078.5" y="108.86"/><use xlink:href="#QRXRgtn50Quk4mhCUqSo_pad-63" x="450" y="1669.69"/><use xlink:href="#QRXRgtn50Quk4mhCUqSo_pad-64" x="150" y="150"/><use xlink:href="#QRXRgtn50Quk4mhCUqSo_pad-64" x="1600" y="150"/><use xlink:href="#QRXRgtn50Quk4mhCUqSo_pad-64" x="1600" y="3850"/><use xlink:href="#QRXRgtn50Quk4mhCUqSo_pad-64" x="150" y="3850"/><use xlink:href="#QRXRgtn50Quk4mhCUqSo_pad-65" x="1900" y="3600"/><use xlink:href="#QRXRgtn50Quk4mhCUqSo_pad-65" x="1900" y="3450"/><use xlink:href="#QRXRgtn50Quk4mhCUqSo_pad-65" x="1900" y="3150"/><use xlink:href="#QRXRgtn50Quk4mhCUqSo_pad-65" x="1900" y="3300"/><use xlink:href="#QRXRgtn50Quk4mhCUqSo_pad-65" x="1900" y="2700"/><use xlink:href="#QRXRgtn50Quk4mhCUqSo_pad-65" x="1900" y="2550"/><use xlink:href="#QRXRgtn50Quk4mhCUqSo_pad-65" x="1900" y="2850"/><use xlink:href="#QRXRgtn50Quk4mhCUqSo_pad-65" x="1900" y="3000"/><use xlink:href="#QRXRgtn50Quk4mhCUqSo_pad-65" x="1900" y="2400"/><use xlink:href="#QRXRgtn50Quk4mhCUqSo_pad-65" x="1900" y="2100"/><use xlink:href="#QRXRgtn50Quk4mhCUqSo_pad-65" x="1900" y="2250"/><use xlink:href="#QRXRgtn50Quk4mhCUqSo_pad-65" x="2100" y="2174.61"/><use xlink:href="#QRXRgtn50Quk4mhCUqSo_pad-65" x="2100" y="2324.61"/><use xlink:href="#QRXRgtn50Quk4mhCUqSo_pad-65" x="2100" y="2924.61"/><use xlink:href="#QRXRgtn50Quk4mhCUqSo_pad-65" x="2100" y="2774.61"/><use xlink:href="#QRXRgtn50Quk4mhCUqSo_pad-65" x="2100" y="2474.61"/><use xlink:href="#QRXRgtn50Quk4mhCUqSo_pad-65" x="2100" y="2624.61"/><use xlink:href="#QRXRgtn50Quk4mhCUqSo_pad-65" x="2100" y="3224.61"/><use xlink:href="#QRXRgtn50Quk4mhCUqSo_pad-65" x="2100" y="3074.61"/><use xlink:href="#QRXRgtn50Quk4mhCUqSo_pad-65" x="2100" y="3374.61"/><use xlink:href="#QRXRgtn50Quk4mhCUqSo_pad-65" x="2100" y="3524.61"/><use xlink:href="#QRXRgtn50Quk4mhCUqSo_pad-66" x="350" y="1358.07"/><use xlink:href="#QRXRgtn50Quk4mhCUqSo_pad-66" x="350" y="2341.93"/><use xlink:href="#QRXRgtn50Quk4mhCUqSo_pad-67" x="1345" y="2475"/><use xlink:href="#QRXRgtn50Quk4mhCUqSo_pad-67" x="1080" y="2395"/><use xlink:href="#QRXRgtn50Quk4mhCUqSo_pad-67" x="1326.65" y="1940"/><use xlink:href="#QRXRgtn50Quk4mhCUqSo_pad-67" x="1460" y="1940.16"/><use xlink:href="#QRXRgtn50Quk4mhCUqSo_pad-67" x="1010" y="2395"/><use xlink:href="#QRXRgtn50Quk4mhCUqSo_pad-67" x="1000" y="2050"/><use xlink:href="#QRXRgtn50Quk4mhCUqSo_pad-67" x="1065" y="2050"/><use xlink:href="#QRXRgtn50Quk4mhCUqSo_pad-67" x="1484.84" y="2645.28"/><use xlink:href="#QRXRgtn50Quk4mhCUqSo_pad-67" x="1081.89" y="2798.42"/><use xlink:href="#QRXRgtn50Quk4mhCUqSo_pad-67" x="944.29" y="2525"/><use xlink:href="#QRXRgtn50Quk4mhCUqSo_pad-67" x="944.29" y="2575"/><use xlink:href="#QRXRgtn50Quk4mhCUqSo_pad-67" x="935.43" y="2161.61"/><use xlink:href="#QRXRgtn50Quk4mhCUqSo_pad-67" x="1366.53" y="2150"/><use xlink:href="#QRXRgtn50Quk4mhCUqSo_pad-67" x="1335.43" y="1725"/><use xlink:href="#QRXRgtn50Quk4mhCUqSo_pad-67" x="864.57" y="1825"/><use xlink:href="#QRXRgtn50Quk4mhCUqSo_pad-67" x="966.53" y="1950"/><use xlink:href="#QRXRgtn50Quk4mhCUqSo_pad-67" x="975" y="2000"/><use xlink:href="#QRXRgtn50Quk4mhCUqSo_pad-67" x="1418.11" y="1823.43"/><use xlink:href="#QRXRgtn50Quk4mhCUqSo_pad-67" x="1418.7" y="1673.42"/><use xlink:href="#QRXRgtn50Quk4mhCUqSo_pad-67" x="1375" y="850"/><use xlink:href="#QRXRgtn50Quk4mhCUqSo_pad-67" x="925" y="850"/><use xlink:href="#QRXRgtn50Quk4mhCUqSo_pad-67" x="1775" y="1925"/><use xlink:href="#QRXRgtn50Quk4mhCUqSo_pad-67" x="1775" y="2050"/><use xlink:href="#QRXRgtn50Quk4mhCUqSo_pad-67" x="550" y="1900"/><use xlink:href="#QRXRgtn50Quk4mhCUqSo_pad-67" x="600" y="1825"/><use xlink:href="#QRXRgtn50Quk4mhCUqSo_pad-67" x="600" y="1900"/><use xlink:href="#QRXRgtn50Quk4mhCUqSo_pad-67" x="700" y="1650"/><use xlink:href="#QRXRgtn50Quk4mhCUqSo_pad-67" x="700" y="1700"/><use xlink:href="#QRXRgtn50Quk4mhCUqSo_pad-67" x="700" y="1750"/></g></svg>