<svg version="1.1" xmlns="http://www.w3.org/2000/svg" xmlns:xlink="http://www.w3.org/1999/xlink" stroke-linecap="round" stroke-linejoin="round" stroke-width="0" fill-rule="evenodd" width="2.2191199999999998in" height="3.87806in" viewBox="38.945 13.31 2219.12 3878.06" id="hZ4Zswr2DdmKvBEw1YWn"><defs><rect x="-14.205" y="-14.205" width="28.41" height="28.41" id="hZ4Zswr2DdmKvBEw1YWn_pad-17"/><rect x="-39.4" y="-13.81" width="78.8" height="27.62" rx="13.81" ry="13.81" id="hZ4Zswr2DdmKvBEw1YWn_pad-18"/><rect x="-22.67" y="-27.59" width="45.34" height="55.18" id="hZ4Zswr2DdmKvBEw1YWn_pad-19"/><g id="hZ4Zswr2DdmKvBEw1YWn_pad-20"><polygon points="10.335,-27.59 10.335,27.59 -10.335,27.59 -10.335,-27.59"/><polygon points="22.67,-15.255 22.67,15.255 -22.67,15.255 -22.67,-15.255"/><circle cx="10.34" cy="15.26" r="12.335"/><circle cx="10.34" cy="-15.26" r="12.335"/><circle cx="-10.34" cy="-15.26" r="12.335"/><circle cx="-10.34" cy="15.26" r="12.335"/></g><rect x="-12.825" y="-12.825" width="25.65" height="25.65" id="hZ4Zswr2DdmKvBEw1YWn_pad-21"/><rect x="-14.205" y="-14.205" width="28.41" height="28.41" id="hZ4Zswr2DdmKvBEw1YWn_pad-22"/><rect x="-12.825" y="-12.825" width="25.65" height="25.65" id="hZ4Zswr2DdmKvBEw1YWn_pad-23"/><rect x="-30.545" y="-13.81" width="61.09" height="27.62" rx="13.81" ry="13.81" id="hZ4Zswr2DdmKvBEw1YWn_pad-24"/><rect x="-17.75" y="-54.165" width="35.5" height="108.33" id="hZ4Zswr2DdmKvBEw1YWn_pad-25"/><rect x="-23.655" y="-35.465" width="47.31" height="70.93" id="hZ4Zswr2DdmKvBEw1YWn_pad-26"/><rect x="-18.735" y="-20.7" width="37.47" height="41.4" id="hZ4Zswr2DdmKvBEw1YWn_pad-27"/><rect x="-9.875" y="-31.53" width="19.75" height="63.06" id="hZ4Zswr2DdmKvBEw1YWn_pad-28"/><rect x="-29.56" y="-10.86" width="59.12" height="21.72" rx="10.86" ry="10.86" id="hZ4Zswr2DdmKvBEw1YWn_pad-29"/><circle cx="0" cy="0" r="36.45" id="hZ4Zswr2DdmKvBEw1YWn_pad-30"/><circle cx="0" cy="0" r="29.56" id="hZ4Zswr2DdmKvBEw1YWn_pad-31"/><circle cx="0" cy="0" r="31.53" id="hZ4Zswr2DdmKvBEw1YWn_pad-32"/><rect x="-61.055" y="-41.37" width="122.11" height="82.74" rx="41.37" ry="41.37" id="hZ4Zswr2DdmKvBEw1YWn_pad-33"/><circle cx="0" cy="0" r="61.055" id="hZ4Zswr2DdmKvBEw1YWn_pad-34"/><circle cx="0" cy="0" r="76.805" id="hZ4Zswr2DdmKvBEw1YWn_pad-35"/><rect x="-29.56" y="-29.56" width="59.12" height="59.12" id="hZ4Zswr2DdmKvBEw1YWn_pad-36"/><circle cx="0" cy="0" r="32" id="hZ4Zswr2DdmKvBEw1YWn_pad-37"/><circle cx="0" cy="0" r="2" id="hZ4Zswr2DdmKvBEw1YWn_pad-38"/><circle cx="0" cy="0" r="37.435" id="hZ4Zswr2DdmKvBEw1YWn_pad-39"/><circle cx="0" cy="0" r="100.425" id="hZ4Zswr2DdmKvBEw1YWn_pad-40"/></defs><g transform="translate(0,3904.68) scale(1,-1)" fill="currentColor" stroke="currentColor"><use xlink:href="#hZ4Zswr2DdmKvBEw1YWn_pad-17" x="1418.11" y="2445"/><use xlink:href="#hZ4Zswr2DdmKvBEw1YWn_pad-17" x="1381.89" y="2445"/><use xlink:href="#hZ4Zswr2DdmKvBEw1YWn_pad-17" x="1418.11" y="2500"/><use xlink:href="#hZ4Zswr2DdmKvBEw1YWn_pad-17" x="1381.89" y="2500"/><use xlink:href="#hZ4Zswr2DdmKvBEw1YWn_pad-17" x="881.89" y="1950"/><use xlink:href="#hZ4Zswr2DdmKvBEw1YWn_pad-17" x="918.11" y="1950"/><use xlink:href="#hZ4Zswr2DdmKvBEw1YWn_pad-17" x="1381.89" y="2700"/><use xlink:href="#hZ4Zswr2DdmKvBEw1YWn_pad-17" x="1418.11" y="2700"/><use xlink:href="#hZ4Zswr2DdmKvBEw1YWn_pad-17" x="1131.89" y="850"/><use xlink:href="#hZ4Zswr2DdmKvBEw1YWn_pad-17" x="1168.11" y="850"/><use xlink:href="#hZ4Zswr2DdmKvBEw1YWn_pad-17" x="1418.11" y="1775"/><use xlink:href="#hZ4Zswr2DdmKvBEw1YWn_pad-17" x="1381.89" y="1775"/><use xlink:href="#hZ4Zswr2DdmKvBEw1YWn_pad-17" x="631.89" y="1450"/><use xlink:href="#hZ4Zswr2DdmKvBEw1YWn_pad-17" x="668.11" y="1450"/><use xlink:href="#hZ4Zswr2DdmKvBEw1YWn_pad-17" x="631.89" y="1500"/><use xlink:href="#hZ4Zswr2DdmKvBEw1YWn_pad-17" x="668.11" y="1500"/><use xlink:href="#hZ4Zswr2DdmKvBEw1YWn_pad-17" x="631.89" y="1550"/><use xlink:href="#hZ4Zswr2DdmKvBEw1YWn_pad-17" x="668.11" y="1550"/><use xlink:href="#hZ4Zswr2DdmKvBEw1YWn_pad-17" x="831.89" y="2150"/><use xlink:href="#hZ4Zswr2DdmKvBEw1YWn_pad-17" x="868.11" y="2150"/><use xlink:href="#hZ4Zswr2DdmKvBEw1YWn_pad-17" x="831.89" y="2200"/><use xlink:href="#hZ4Zswr2DdmKvBEw1YWn_pad-17" x="868.11" y="2200"/><use xlink:href="#hZ4Zswr2DdmKvBEw1YWn_pad-17" x="1318.11" y="2150"/><use xlink:href="#hZ4Zswr2DdmKvBEw1YWn_pad-17" x="1281.89" y="2150"/><use xlink:href="#hZ4Zswr2DdmKvBEw1YWn_pad-17" x="868.11" y="2250"/><use xlink:href="#hZ4Zswr2DdmKvBEw1YWn_pad-17" x="831.89" y="2250"/><use xlink:href="#hZ4Zswr2DdmKvBEw1YWn_pad-17" x="868.11" y="2300"/><use xlink:href="#hZ4Zswr2DdmKvBEw1YWn_pad-17" x="831.89" y="2300"/><use xlink:href="#hZ4Zswr2DdmKvBEw1YWn_pad-17" x="1118.11" y="2750"/><use xlink:href="#hZ4Zswr2DdmKvBEw1YWn_pad-17" x="1081.89" y="2750"/><use xlink:href="#hZ4Zswr2DdmKvBEw1YWn_pad-18" x="1287.01" y="1525"/><use xlink:href="#hZ4Zswr2DdmKvBEw1YWn_pad-18" x="1287.01" y="1575"/><use xlink:href="#hZ4Zswr2DdmKvBEw1YWn_pad-18" x="1287.01" y="1625"/><use xlink:href="#hZ4Zswr2DdmKvBEw1YWn_pad-18" x="1287.01" y="1675"/><use xlink:href="#hZ4Zswr2DdmKvBEw1YWn_pad-18" x="1287.01" y="1725"/><use xlink:href="#hZ4Zswr2DdmKvBEw1YWn_pad-18" x="1287.01" y="1775"/><use xlink:href="#hZ4Zswr2DdmKvBEw1YWn_pad-18" x="1287.01" y="1825"/><use xlink:href="#hZ4Zswr2DdmKvBEw1YWn_pad-18" x="1287.01" y="1875"/><use xlink:href="#hZ4Zswr2DdmKvBEw1YWn_pad-18" x="912.99" y="1525"/><use xlink:href="#hZ4Zswr2DdmKvBEw1YWn_pad-18" x="912.99" y="1575"/><use xlink:href="#hZ4Zswr2DdmKvBEw1YWn_pad-18" x="912.99" y="1625"/><use xlink:href="#hZ4Zswr2DdmKvBEw1YWn_pad-18" x="912.99" y="1675"/><use xlink:href="#hZ4Zswr2DdmKvBEw1YWn_pad-18" x="912.99" y="1725"/><use xlink:href="#hZ4Zswr2DdmKvBEw1YWn_pad-18" x="912.99" y="1775"/><use xlink:href="#hZ4Zswr2DdmKvBEw1YWn_pad-18" x="912.99" y="1825"/><use xlink:href="#hZ4Zswr2DdmKvBEw1YWn_pad-18" x="912.99" y="1875"/><use xlink:href="#hZ4Zswr2DdmKvBEw1YWn_pad-19" x="1436.42" y="2554.72"/><use xlink:href="#hZ4Zswr2DdmKvBEw1YWn_pad-20" x="1436.42" y="2645.28"/><use xlink:href="#hZ4Zswr2DdmKvBEw1YWn_pad-20" x="1363.58" y="2554.72"/><use xlink:href="#hZ4Zswr2DdmKvBEw1YWn_pad-20" x="1363.58" y="2645.28"/><use xlink:href="#hZ4Zswr2DdmKvBEw1YWn_pad-21" x="1381.3" y="1875"/><use xlink:href="#hZ4Zswr2DdmKvBEw1YWn_pad-21" x="1418.7" y="1875"/><use xlink:href="#hZ4Zswr2DdmKvBEw1YWn_pad-21" x="1500" y="800"/><use xlink:href="#hZ4Zswr2DdmKvBEw1YWn_pad-21" x="1462.6" y="800"/><use xlink:href="#hZ4Zswr2DdmKvBEw1YWn_pad-21" x="1418.7" y="1625"/><use xlink:href="#hZ4Zswr2DdmKvBEw1YWn_pad-21" x="1381.3" y="1625"/><use xlink:href="#hZ4Zswr2DdmKvBEw1YWn_pad-21" x="1418.7" y="1575"/><use xlink:href="#hZ4Zswr2DdmKvBEw1YWn_pad-21" x="1381.3" y="1575"/><use xlink:href="#hZ4Zswr2DdmKvBEw1YWn_pad-21" x="1768.7" y="2850"/><use xlink:href="#hZ4Zswr2DdmKvBEw1YWn_pad-21" x="1731.3" y="2850"/><use xlink:href="#hZ4Zswr2DdmKvBEw1YWn_pad-21" x="1768.7" y="3150"/><use xlink:href="#hZ4Zswr2DdmKvBEw1YWn_pad-21" x="1731.3" y="3150"/><use xlink:href="#hZ4Zswr2DdmKvBEw1YWn_pad-21" x="1500" y="950"/><use xlink:href="#hZ4Zswr2DdmKvBEw1YWn_pad-21" x="1462.6" y="950"/><use xlink:href="#hZ4Zswr2DdmKvBEw1YWn_pad-21" x="668.7" y="1700"/><use xlink:href="#hZ4Zswr2DdmKvBEw1YWn_pad-21" x="631.3" y="1700"/><use xlink:href="#hZ4Zswr2DdmKvBEw1YWn_pad-21" x="668.7" y="1750"/><use xlink:href="#hZ4Zswr2DdmKvBEw1YWn_pad-21" x="631.3" y="1750"/><use xlink:href="#hZ4Zswr2DdmKvBEw1YWn_pad-21" x="631.3" y="1650"/><use xlink:href="#hZ4Zswr2DdmKvBEw1YWn_pad-21" x="668.7" y="1650"/><use xlink:href="#hZ4Zswr2DdmKvBEw1YWn_pad-21" x="1731.3" y="2250"/><use xlink:href="#hZ4Zswr2DdmKvBEw1YWn_pad-21" x="1768.7" y="2250"/><use xlink:href="#hZ4Zswr2DdmKvBEw1YWn_pad-21" x="1731.3" y="2550"/><use xlink:href="#hZ4Zswr2DdmKvBEw1YWn_pad-21" x="1768.7" y="2550"/><use xlink:href="#hZ4Zswr2DdmKvBEw1YWn_pad-21" x="468.7" y="2950"/><use xlink:href="#hZ4Zswr2DdmKvBEw1YWn_pad-21" x="431.3" y="2950"/><use xlink:href="#hZ4Zswr2DdmKvBEw1YWn_pad-21" x="468.7" y="3550"/><use xlink:href="#hZ4Zswr2DdmKvBEw1YWn_pad-21" x="431.3" y="3550"/><use xlink:href="#hZ4Zswr2DdmKvBEw1YWn_pad-21" x="1831.3" y="1450"/><use xlink:href="#hZ4Zswr2DdmKvBEw1YWn_pad-21" x="1868.7" y="1450"/><use xlink:href="#hZ4Zswr2DdmKvBEw1YWn_pad-22" x="1300" y="2531.89"/><use xlink:href="#hZ4Zswr2DdmKvBEw1YWn_pad-22" x="1300" y="2568.11"/><use xlink:href="#hZ4Zswr2DdmKvBEw1YWn_pad-23" x="1300" y="2631.3"/><use xlink:href="#hZ4Zswr2DdmKvBEw1YWn_pad-23" x="1300" y="2668.7"/><use xlink:href="#hZ4Zswr2DdmKvBEw1YWn_pad-24" x="1207.28" y="2525"/><use xlink:href="#hZ4Zswr2DdmKvBEw1YWn_pad-24" x="1207.28" y="2575"/><use xlink:href="#hZ4Zswr2DdmKvBEw1YWn_pad-24" x="1207.28" y="2625"/><use xlink:href="#hZ4Zswr2DdmKvBEw1YWn_pad-24" x="1207.28" y="2675"/><use xlink:href="#hZ4Zswr2DdmKvBEw1YWn_pad-24" x="992.72" y="2525"/><use xlink:href="#hZ4Zswr2DdmKvBEw1YWn_pad-24" x="992.72" y="2575"/><use xlink:href="#hZ4Zswr2DdmKvBEw1YWn_pad-24" x="992.72" y="2625"/><use xlink:href="#hZ4Zswr2DdmKvBEw1YWn_pad-24" x="992.72" y="2675"/><use xlink:href="#hZ4Zswr2DdmKvBEw1YWn_pad-25" x="1586.02" y="800"/><use xlink:href="#hZ4Zswr2DdmKvBEw1YWn_pad-25" x="1713.98" y="800"/><use xlink:href="#hZ4Zswr2DdmKvBEw1YWn_pad-25" x="1586.02" y="950"/><use xlink:href="#hZ4Zswr2DdmKvBEw1YWn_pad-25" x="1713.98" y="950"/><use xlink:href="#hZ4Zswr2DdmKvBEw1YWn_pad-26" x="1096.85" y="750"/><use xlink:href="#hZ4Zswr2DdmKvBEw1YWn_pad-26" x="1203.15" y="750"/><use xlink:href="#hZ4Zswr2DdmKvBEw1YWn_pad-27" x="1326.58" y="850"/><use xlink:href="#hZ4Zswr2DdmKvBEw1YWn_pad-27" x="1273.42" y="850"/><use xlink:href="#hZ4Zswr2DdmKvBEw1YWn_pad-27" x="973.42" y="850"/><use xlink:href="#hZ4Zswr2DdmKvBEw1YWn_pad-27" x="1026.57" y="850"/><use xlink:href="#hZ4Zswr2DdmKvBEw1YWn_pad-27" x="873.43" y="2000"/><use xlink:href="#hZ4Zswr2DdmKvBEw1YWn_pad-27" x="926.58" y="2000"/><use xlink:href="#hZ4Zswr2DdmKvBEw1YWn_pad-28" x="1145" y="160"/><use xlink:href="#hZ4Zswr2DdmKvBEw1YWn_pad-28" x="1170.59" y="160"/><use xlink:href="#hZ4Zswr2DdmKvBEw1YWn_pad-28" x="1119.41" y="160"/><use xlink:href="#hZ4Zswr2DdmKvBEw1YWn_pad-28" x="1093.82" y="160"/><use xlink:href="#hZ4Zswr2DdmKvBEw1YWn_pad-28" x="1196.18" y="160"/><use xlink:href="#hZ4Zswr2DdmKvBEw1YWn_pad-29" x="983.86" y="2276.77"/><use xlink:href="#hZ4Zswr2DdmKvBEw1YWn_pad-29" x="983.86" y="2251.18"/><use xlink:href="#hZ4Zswr2DdmKvBEw1YWn_pad-29" x="983.86" y="2225.59"/><use xlink:href="#hZ4Zswr2DdmKvBEw1YWn_pad-29" x="983.86" y="2200"/><use xlink:href="#hZ4Zswr2DdmKvBEw1YWn_pad-29" x="983.86" y="2174.41"/><use xlink:href="#hZ4Zswr2DdmKvBEw1YWn_pad-29" x="983.86" y="2148.82"/><use xlink:href="#hZ4Zswr2DdmKvBEw1YWn_pad-29" x="983.86" y="2123.23"/><use xlink:href="#hZ4Zswr2DdmKvBEw1YWn_pad-29" x="1216.14" y="2276.77"/><use xlink:href="#hZ4Zswr2DdmKvBEw1YWn_pad-29" x="1216.14" y="2251.18"/><use xlink:href="#hZ4Zswr2DdmKvBEw1YWn_pad-29" x="1216.14" y="2225.59"/><use xlink:href="#hZ4Zswr2DdmKvBEw1YWn_pad-29" x="1216.14" y="2200"/><use xlink:href="#hZ4Zswr2DdmKvBEw1YWn_pad-29" x="1216.14" y="2174.41"/><use xlink:href="#hZ4Zswr2DdmKvBEw1YWn_pad-29" x="1216.14" y="2148.82"/><use xlink:href="#hZ4Zswr2DdmKvBEw1YWn_pad-29" x="1216.14" y="2123.23"/><use xlink:href="#hZ4Zswr2DdmKvBEw1YWn_pad-30" x="1282.79" y="49.76"/><use xlink:href="#hZ4Zswr2DdmKvBEw1YWn_pad-30" x="1007.21" y="49.76"/><use xlink:href="#hZ4Zswr2DdmKvBEw1YWn_pad-31" x="1243.43" y="160"/><use xlink:href="#hZ4Zswr2DdmKvBEw1YWn_pad-31" x="450" y="1759.84"/><use xlink:href="#hZ4Zswr2DdmKvBEw1YWn_pad-31" x="450" y="1850"/><use xlink:href="#hZ4Zswr2DdmKvBEw1YWn_pad-31" x="250" y="1850"/><use xlink:href="#hZ4Zswr2DdmKvBEw1YWn_pad-31" x="250" y="1940.16"/><use xlink:href="#hZ4Zswr2DdmKvBEw1YWn_pad-31" x="250" y="1669.69"/><use xlink:href="#hZ4Zswr2DdmKvBEw1YWn_pad-31" x="250" y="1759.84"/><use xlink:href="#hZ4Zswr2DdmKvBEw1YWn_pad-31" x="450" y="1940.16"/><use xlink:href="#hZ4Zswr2DdmKvBEw1YWn_pad-31" x="350" y="1885.04"/><use xlink:href="#hZ4Zswr2DdmKvBEw1YWn_pad-31" x="250" y="2030.31"/><use xlink:href="#hZ4Zswr2DdmKvBEw1YWn_pad-31" x="450" y="2030.31"/><use xlink:href="#hZ4Zswr2DdmKvBEw1YWn_pad-31" x="350" y="1614.57"/><use xlink:href="#hZ4Zswr2DdmKvBEw1YWn_pad-31" x="350" y="1704.72"/><use xlink:href="#hZ4Zswr2DdmKvBEw1YWn_pad-31" x="350" y="1794.88"/><use xlink:href="#hZ4Zswr2DdmKvBEw1YWn_pad-31" x="350" y="1975.2"/><use xlink:href="#hZ4Zswr2DdmKvBEw1YWn_pad-32" x="1046.57" y="160"/><use xlink:href="#hZ4Zswr2DdmKvBEw1YWn_pad-32" x="1960" y="508.86"/><use xlink:href="#hZ4Zswr2DdmKvBEw1YWn_pad-32" x="1960" y="241.14"/><use xlink:href="#hZ4Zswr2DdmKvBEw1YWn_pad-32" x="1861.97" y="508.86"/><use xlink:href="#hZ4Zswr2DdmKvBEw1YWn_pad-32" x="1861.97" y="241.14"/><use xlink:href="#hZ4Zswr2DdmKvBEw1YWn_pad-33" x="2020" y="975"/><use xlink:href="#hZ4Zswr2DdmKvBEw1YWn_pad-33" x="277.01" y="2950"/><use xlink:href="#hZ4Zswr2DdmKvBEw1YWn_pad-33" x="277.01" y="3550"/><use xlink:href="#hZ4Zswr2DdmKvBEw1YWn_pad-34" x="2197.01" y="975"/><use xlink:href="#hZ4Zswr2DdmKvBEw1YWn_pad-34" x="100" y="2950"/><use xlink:href="#hZ4Zswr2DdmKvBEw1YWn_pad-34" x="100" y="3550"/><use xlink:href="#hZ4Zswr2DdmKvBEw1YWn_pad-35" x="2110" y="375"/><use xlink:href="#hZ4Zswr2DdmKvBEw1YWn_pad-35" x="2078.5" y="641.14"/><use xlink:href="#hZ4Zswr2DdmKvBEw1YWn_pad-35" x="2078.5" y="108.86"/><use xlink:href="#hZ4Zswr2DdmKvBEw1YWn_pad-36" x="450" y="1669.69"/><use xlink:href="#hZ4Zswr2DdmKvBEw1YWn_pad-37" x="150" y="150"/><use xlink:href="#hZ4Zswr2DdmKvBEw1YWn_pad-37" x="1600" y="150"/><use xlink:href="#hZ4Zswr2DdmKvBEw1YWn_pad-37" x="1600" y="3850"/><use xlink:href="#hZ4Zswr2DdmKvBEw1YWn_pad-37" x="150" y="3850"/><use xlink:href="#hZ4Zswr2DdmKvBEw1YWn_pad-38" x="2189.37" y="3889.37"/><use xlink:href="#hZ4Zswr2DdmKvBEw1YWn_pad-38" x="2189.37" y="1810.63"/><use xlink:href="#hZ4Zswr2DdmKvBEw1YWn_pad-39" x="1900" y="3600"/><use xlink:href="#hZ4Zswr2DdmKvBEw1YWn_pad-39" x="1900" y="3450"/><use xlink:href="#hZ4Zswr2DdmKvBEw1YWn_pad-39" x="1900" y="3150"/><use xlink:href="#hZ4Zswr2DdmKvBEw1YWn_pad-39" x="1900" y="3300"/><use xlink:href="#hZ4Zswr2DdmKvBEw1YWn_pad-39" x="1900" y="2700"/><use xlink:href="#hZ4Zswr2DdmKvBEw1YWn_pad-39" x="1900" y="2550"/><use xlink:href="#hZ4Zswr2DdmKvBEw1YWn_pad-39" x="1900" y="2850"/><use xlink:href="#hZ4Zswr2DdmKvBEw1YWn_pad-39" x="1900" y="3000"/><use xlink:href="#hZ4Zswr2DdmKvBEw1YWn_pad-39" x="1900" y="2400"/><use xlink:href="#hZ4Zswr2DdmKvBEw1YWn_pad-39" x="1900" y="2100"/><use xlink:href="#hZ4Zswr2DdmKvBEw1YWn_pad-39" x="1900" y="2250"/><use xlink:href="#hZ4Zswr2DdmKvBEw1YWn_pad-39" x="2100" y="2174.61"/><use xlink:href="#hZ4Zswr2DdmKvBEw1YWn_pad-39" x="2100" y="2324.61"/><use xlink:href="#hZ4Zswr2DdmKvBEw1YWn_pad-39" x="2100" y="2924.61"/><use xlink:href="#hZ4Zswr2DdmKvBEw1YWn_pad-39" x="2100" y="2774.61"/><use xlink:href="#hZ4Zswr2DdmKvBEw1YWn_pad-39" x="2100" y="2474.61"/><use xlink:href="#hZ4Zswr2DdmKvBEw1YWn_pad-39" x="2100" y="2624.61"/><use xlink:href="#hZ4Zswr2DdmKvBEw1YWn_pad-39" x="2100" y="3224.61"/><use xlink:href="#hZ4Zswr2DdmKvBEw1YWn_pad-39" x="2100" y="3074.61"/><use xlink:href="#hZ4Zswr2DdmKvBEw1YWn_pad-39" x="2100" y="3374.61"/><use xlink:href="#hZ4Zswr2DdmKvBEw1YWn_pad-39" x="2100" y="3524.61"/><use xlink:href="#hZ4Zswr2DdmKvBEw1YWn_pad-40" x="350" y="1358.07"/><use xlink:href="#hZ4Zswr2DdmKvBEw1YWn_pad-40" x="350" y="2341.93"/></g></svg>