<svg version="1.1" xmlns="http://www.w3.org/2000/svg" xmlns:xlink="http://www.w3.org/1999/xlink" stroke-linecap="round" stroke-linejoin="round" stroke-width="0" fill-rule="evenodd" width="2.07988in" height="3.90083in" viewBox="75 24.17 2079.88 3900.83" id="wrYcn8YCWYVE1VbTnZ7V"><defs><circle cx="0" cy="0" r="6.5" id="wrYcn8YCWYVE1VbTnZ7V_pad-1"/><circle cx="0" cy="0" r="17.715" id="wrYcn8YCWYVE1VbTnZ7V_pad-2"/><circle cx="0" cy="0" r="19.685" id="wrYcn8YCWYVE1VbTnZ7V_pad-3"/><circle cx="0" cy="0" r="25.59" id="wrYcn8YCWYVE1VbTnZ7V_pad-5"/><circle cx="0" cy="0" r="27.56" id="wrYcn8YCWYVE1VbTnZ7V_pad-6"/><circle cx="0" cy="0" r="44.88" id="wrYcn8YCWYVE1VbTnZ7V_pad-8"/><circle cx="0" cy="0" r="64.96" id="wrYcn8YCWYVE1VbTnZ7V_pad-9"/><circle cx="0" cy="0" r="75" id="wrYcn8YCWYVE1VbTnZ7V_pad-11"/></defs><g transform="translate(0,3949.17) scale(1,-1)" fill="currentColor" stroke="currentColor"><use xlink:href="#wrYcn8YCWYVE1VbTnZ7V_pad-1" x="1375" y="850"/><use xlink:href="#wrYcn8YCWYVE1VbTnZ7V_pad-1" x="1418.7" y="1673.42"/><use xlink:href="#wrYcn8YCWYVE1VbTnZ7V_pad-1" x="1335.43" y="1725"/><use xlink:href="#wrYcn8YCWYVE1VbTnZ7V_pad-1" x="1418.11" y="1823.43"/><use xlink:href="#wrYcn8YCWYVE1VbTnZ7V_pad-1" x="1460" y="1940.16"/><use xlink:href="#wrYcn8YCWYVE1VbTnZ7V_pad-1" x="1326.65" y="1940"/><use xlink:href="#wrYcn8YCWYVE1VbTnZ7V_pad-1" x="1775" y="1925"/><use xlink:href="#wrYcn8YCWYVE1VbTnZ7V_pad-1" x="1775" y="2050"/><use xlink:href="#wrYcn8YCWYVE1VbTnZ7V_pad-1" x="1065" y="2050"/><use xlink:href="#wrYcn8YCWYVE1VbTnZ7V_pad-1" x="1000" y="2050"/><use xlink:href="#wrYcn8YCWYVE1VbTnZ7V_pad-1" x="975" y="2000"/><use xlink:href="#wrYcn8YCWYVE1VbTnZ7V_pad-1" x="966.53" y="1950"/><use xlink:href="#wrYcn8YCWYVE1VbTnZ7V_pad-1" x="864.57" y="1825"/><use xlink:href="#wrYcn8YCWYVE1VbTnZ7V_pad-1" x="700" y="1750"/><use xlink:href="#wrYcn8YCWYVE1VbTnZ7V_pad-1" x="700" y="1700"/><use xlink:href="#wrYcn8YCWYVE1VbTnZ7V_pad-1" x="700" y="1650"/><use xlink:href="#wrYcn8YCWYVE1VbTnZ7V_pad-1" x="600" y="1825"/><use xlink:href="#wrYcn8YCWYVE1VbTnZ7V_pad-1" x="600" y="1900"/><use xlink:href="#wrYcn8YCWYVE1VbTnZ7V_pad-1" x="550" y="1900"/><use xlink:href="#wrYcn8YCWYVE1VbTnZ7V_pad-1" x="925" y="850"/><use xlink:href="#wrYcn8YCWYVE1VbTnZ7V_pad-1" x="935.43" y="2161.61"/><use xlink:href="#wrYcn8YCWYVE1VbTnZ7V_pad-1" x="1010" y="2395"/><use xlink:href="#wrYcn8YCWYVE1VbTnZ7V_pad-1" x="1080" y="2395"/><use xlink:href="#wrYcn8YCWYVE1VbTnZ7V_pad-1" x="944.29" y="2525"/><use xlink:href="#wrYcn8YCWYVE1VbTnZ7V_pad-1" x="944.29" y="2575"/><use xlink:href="#wrYcn8YCWYVE1VbTnZ7V_pad-1" x="1081.89" y="2798.42"/><use xlink:href="#wrYcn8YCWYVE1VbTnZ7V_pad-1" x="1484.84" y="2645.28"/><use xlink:href="#wrYcn8YCWYVE1VbTnZ7V_pad-1" x="1345" y="2475"/><use xlink:href="#wrYcn8YCWYVE1VbTnZ7V_pad-1" x="1366.53" y="2150"/><use xlink:href="#wrYcn8YCWYVE1VbTnZ7V_pad-2" x="1861.97" y="241.14"/><use xlink:href="#wrYcn8YCWYVE1VbTnZ7V_pad-2" x="1960" y="241.14"/><use xlink:href="#wrYcn8YCWYVE1VbTnZ7V_pad-2" x="1960" y="508.86"/><use xlink:href="#wrYcn8YCWYVE1VbTnZ7V_pad-2" x="1861.97" y="508.86"/><use xlink:href="#wrYcn8YCWYVE1VbTnZ7V_pad-2" x="450" y="1669.69"/><use xlink:href="#wrYcn8YCWYVE1VbTnZ7V_pad-2" x="450" y="1759.84"/><use xlink:href="#wrYcn8YCWYVE1VbTnZ7V_pad-2" x="450" y="1850"/><use xlink:href="#wrYcn8YCWYVE1VbTnZ7V_pad-2" x="450" y="1940.16"/><use xlink:href="#wrYcn8YCWYVE1VbTnZ7V_pad-2" x="450" y="2030.31"/><use xlink:href="#wrYcn8YCWYVE1VbTnZ7V_pad-2" x="350" y="1975.2"/><use xlink:href="#wrYcn8YCWYVE1VbTnZ7V_pad-2" x="350" y="1885.04"/><use xlink:href="#wrYcn8YCWYVE1VbTnZ7V_pad-2" x="350" y="1794.88"/><use xlink:href="#wrYcn8YCWYVE1VbTnZ7V_pad-2" x="350" y="1704.72"/><use xlink:href="#wrYcn8YCWYVE1VbTnZ7V_pad-2" x="350" y="1614.57"/><use xlink:href="#wrYcn8YCWYVE1VbTnZ7V_pad-2" x="250" y="1669.69"/><use xlink:href="#wrYcn8YCWYVE1VbTnZ7V_pad-2" x="250" y="1759.84"/><use xlink:href="#wrYcn8YCWYVE1VbTnZ7V_pad-2" x="250" y="1850"/><use xlink:href="#wrYcn8YCWYVE1VbTnZ7V_pad-2" x="250" y="1940.16"/><use xlink:href="#wrYcn8YCWYVE1VbTnZ7V_pad-2" x="250" y="2030.31"/><use xlink:href="#wrYcn8YCWYVE1VbTnZ7V_pad-3" x="1046.57" y="160"/><use xlink:href="#wrYcn8YCWYVE1VbTnZ7V_pad-3" x="1243.43" y="160"/><use xlink:href="#wrYcn8YCWYVE1VbTnZ7V_pad-5" x="1007.21" y="49.76"/><use xlink:href="#wrYcn8YCWYVE1VbTnZ7V_pad-5" x="1282.79" y="49.76"/><use xlink:href="#wrYcn8YCWYVE1VbTnZ7V_pad-6" x="1900" y="2100"/><use xlink:href="#wrYcn8YCWYVE1VbTnZ7V_pad-6" x="1900" y="2250"/><use xlink:href="#wrYcn8YCWYVE1VbTnZ7V_pad-6" x="1900" y="2400"/><use xlink:href="#wrYcn8YCWYVE1VbTnZ7V_pad-6" x="1900" y="2550"/><use xlink:href="#wrYcn8YCWYVE1VbTnZ7V_pad-6" x="1900" y="2700"/><use xlink:href="#wrYcn8YCWYVE1VbTnZ7V_pad-6" x="1900" y="2850"/><use xlink:href="#wrYcn8YCWYVE1VbTnZ7V_pad-6" x="1900" y="3000"/><use xlink:href="#wrYcn8YCWYVE1VbTnZ7V_pad-6" x="1900" y="3150"/><use xlink:href="#wrYcn8YCWYVE1VbTnZ7V_pad-6" x="1900" y="3300"/><use xlink:href="#wrYcn8YCWYVE1VbTnZ7V_pad-6" x="1900" y="3450"/><use xlink:href="#wrYcn8YCWYVE1VbTnZ7V_pad-6" x="1900" y="3600"/><use xlink:href="#wrYcn8YCWYVE1VbTnZ7V_pad-6" x="2100" y="3524.61"/><use xlink:href="#wrYcn8YCWYVE1VbTnZ7V_pad-6" x="2100" y="3374.61"/><use xlink:href="#wrYcn8YCWYVE1VbTnZ7V_pad-6" x="2100" y="3224.61"/><use xlink:href="#wrYcn8YCWYVE1VbTnZ7V_pad-6" x="2100" y="3074.61"/><use xlink:href="#wrYcn8YCWYVE1VbTnZ7V_pad-6" x="2100" y="2924.61"/><use xlink:href="#wrYcn8YCWYVE1VbTnZ7V_pad-6" x="2100" y="2774.61"/><use xlink:href="#wrYcn8YCWYVE1VbTnZ7V_pad-6" x="2100" y="2624.61"/><use xlink:href="#wrYcn8YCWYVE1VbTnZ7V_pad-6" x="2100" y="2474.61"/><use xlink:href="#wrYcn8YCWYVE1VbTnZ7V_pad-6" x="2100" y="2324.61"/><use xlink:href="#wrYcn8YCWYVE1VbTnZ7V_pad-6" x="2100" y="2174.61"/><use xlink:href="#wrYcn8YCWYVE1VbTnZ7V_pad-8" x="2078.5" y="108.86"/><use xlink:href="#wrYcn8YCWYVE1VbTnZ7V_pad-8" x="2110" y="375"/><use xlink:href="#wrYcn8YCWYVE1VbTnZ7V_pad-8" x="2078.5" y="641.14"/><use xlink:href="#wrYcn8YCWYVE1VbTnZ7V_pad-9" x="350" y="1358.07"/><use xlink:href="#wrYcn8YCWYVE1VbTnZ7V_pad-9" x="350" y="2341.93"/><use xlink:href="#wrYcn8YCWYVE1VbTnZ7V_pad-11" x="150" y="150"/><use xlink:href="#wrYcn8YCWYVE1VbTnZ7V_pad-11" x="1600" y="150"/><use xlink:href="#wrYcn8YCWYVE1VbTnZ7V_pad-11" x="1600" y="3850"/><use xlink:href="#wrYcn8YCWYVE1VbTnZ7V_pad-11" x="150" y="3850"/></g></svg>