<svg version="1.1" xmlns="http://www.w3.org/2000/svg" xmlns:xlink="http://www.w3.org/1999/xlink" stroke-linecap="round" stroke-linejoin="round" stroke-width="0" fill-rule="evenodd" width="2.2191199999999998in" height="3.87806in" viewBox="38.945 13.31 2219.12 3878.06" id="sade_B7g5yrf-2RVvYcS"><defs><circle cx="0" cy="0" r="36.45" id="sade_B7g5yrf-2RVvYcS_pad-30"/><circle cx="0" cy="0" r="29.56" id="sade_B7g5yrf-2RVvYcS_pad-31"/><circle cx="0" cy="0" r="31.53" id="sade_B7g5yrf-2RVvYcS_pad-32"/><rect x="-61.055" y="-41.37" width="122.11" height="82.74" rx="41.37" ry="41.37" id="sade_B7g5yrf-2RVvYcS_pad-33"/><circle cx="0" cy="0" r="61.055" id="sade_B7g5yrf-2RVvYcS_pad-34"/><circle cx="0" cy="0" r="76.805" id="sade_B7g5yrf-2RVvYcS_pad-35"/><rect x="-29.56" y="-29.56" width="59.12" height="59.12" id="sade_B7g5yrf-2RVvYcS_pad-36"/><circle cx="0" cy="0" r="32" id="sade_B7g5yrf-2RVvYcS_pad-37"/><circle cx="0" cy="0" r="2" id="sade_B7g5yrf-2RVvYcS_pad-38"/><circle cx="0" cy="0" r="37.435" id="sade_B7g5yrf-2RVvYcS_pad-39"/><circle cx="0" cy="0" r="100.425" id="sade_B7g5yrf-2RVvYcS_pad-40"/></defs><g transform="translate(0,3904.68) scale(1,-1)" fill="currentColor" stroke="currentColor"><use xlink:href="#sade_B7g5yrf-2RVvYcS_pad-30" x="1282.79" y="49.76"/><use xlink:href="#sade_B7g5yrf-2RVvYcS_pad-30" x="1007.21" y="49.76"/><use xlink:href="#sade_B7g5yrf-2RVvYcS_pad-31" x="1243.43" y="160"/><use xlink:href="#sade_B7g5yrf-2RVvYcS_pad-31" x="450" y="1759.84"/><use xlink:href="#sade_B7g5yrf-2RVvYcS_pad-31" x="450" y="1850"/><use xlink:href="#sade_B7g5yrf-2RVvYcS_pad-31" x="250" y="1850"/><use xlink:href="#sade_B7g5yrf-2RVvYcS_pad-31" x="250" y="1940.16"/><use xlink:href="#sade_B7g5yrf-2RVvYcS_pad-31" x="250" y="1669.69"/><use xlink:href="#sade_B7g5yrf-2RVvYcS_pad-31" x="250" y="1759.84"/><use xlink:href="#sade_B7g5yrf-2RVvYcS_pad-31" x="450" y="1940.16"/><use xlink:href="#sade_B7g5yrf-2RVvYcS_pad-31" x="350" y="1885.04"/><use xlink:href="#sade_B7g5yrf-2RVvYcS_pad-31" x="250" y="2030.31"/><use xlink:href="#sade_B7g5yrf-2RVvYcS_pad-31" x="450" y="2030.31"/><use xlink:href="#sade_B7g5yrf-2RVvYcS_pad-31" x="350" y="1614.57"/><use xlink:href="#sade_B7g5yrf-2RVvYcS_pad-31" x="350" y="1704.72"/><use xlink:href="#sade_B7g5yrf-2RVvYcS_pad-31" x="350" y="1794.88"/><use xlink:href="#sade_B7g5yrf-2RVvYcS_pad-31" x="350" y="1975.2"/><use xlink:href="#sade_B7g5yrf-2RVvYcS_pad-32" x="1046.57" y="160"/><use xlink:href="#sade_B7g5yrf-2RVvYcS_pad-32" x="1960" y="508.86"/><use xlink:href="#sade_B7g5yrf-2RVvYcS_pad-32" x="1960" y="241.14"/><use xlink:href="#sade_B7g5yrf-2RVvYcS_pad-32" x="1861.97" y="508.86"/><use xlink:href="#sade_B7g5yrf-2RVvYcS_pad-32" x="1861.97" y="241.14"/><use xlink:href="#sade_B7g5yrf-2RVvYcS_pad-33" x="2020" y="975"/><use xlink:href="#sade_B7g5yrf-2RVvYcS_pad-33" x="277.01" y="2950"/><use xlink:href="#sade_B7g5yrf-2RVvYcS_pad-33" x="277.01" y="3550"/><use xlink:href="#sade_B7g5yrf-2RVvYcS_pad-34" x="2197.01" y="975"/><use xlink:href="#sade_B7g5yrf-2RVvYcS_pad-34" x="100" y="2950"/><use xlink:href="#sade_B7g5yrf-2RVvYcS_pad-34" x="100" y="3550"/><use xlink:href="#sade_B7g5yrf-2RVvYcS_pad-35" x="2110" y="375"/><use xlink:href="#sade_B7g5yrf-2RVvYcS_pad-35" x="2078.5" y="641.14"/><use xlink:href="#sade_B7g5yrf-2RVvYcS_pad-35" x="2078.5" y="108.86"/><use xlink:href="#sade_B7g5yrf-2RVvYcS_pad-36" x="450" y="1669.69"/><use xlink:href="#sade_B7g5yrf-2RVvYcS_pad-37" x="150" y="150"/><use xlink:href="#sade_B7g5yrf-2RVvYcS_pad-37" x="1600" y="150"/><use xlink:href="#sade_B7g5yrf-2RVvYcS_pad-37" x="1600" y="3850"/><use xlink:href="#sade_B7g5yrf-2RVvYcS_pad-37" x="150" y="3850"/><use xlink:href="#sade_B7g5yrf-2RVvYcS_pad-38" x="2189.37" y="3889.37"/><use xlink:href="#sade_B7g5yrf-2RVvYcS_pad-38" x="2189.37" y="1810.63"/><use xlink:href="#sade_B7g5yrf-2RVvYcS_pad-39" x="1900" y="3600"/><use xlink:href="#sade_B7g5yrf-2RVvYcS_pad-39" x="1900" y="3450"/><use xlink:href="#sade_B7g5yrf-2RVvYcS_pad-39" x="1900" y="3150"/><use xlink:href="#sade_B7g5yrf-2RVvYcS_pad-39" x="1900" y="3300"/><use xlink:href="#sade_B7g5yrf-2RVvYcS_pad-39" x="1900" y="2700"/><use xlink:href="#sade_B7g5yrf-2RVvYcS_pad-39" x="1900" y="2550"/><use xlink:href="#sade_B7g5yrf-2RVvYcS_pad-39" x="1900" y="2850"/><use xlink:href="#sade_B7g5yrf-2RVvYcS_pad-39" x="1900" y="3000"/><use xlink:href="#sade_B7g5yrf-2RVvYcS_pad-39" x="1900" y="2400"/><use xlink:href="#sade_B7g5yrf-2RVvYcS_pad-39" x="1900" y="2100"/><use xlink:href="#sade_B7g5yrf-2RVvYcS_pad-39" x="1900" y="2250"/><use xlink:href="#sade_B7g5yrf-2RVvYcS_pad-39" x="2100" y="2174.61"/><use xlink:href="#sade_B7g5yrf-2RVvYcS_pad-39" x="2100" y="2324.61"/><use xlink:href="#sade_B7g5yrf-2RVvYcS_pad-39" x="2100" y="2924.61"/><use xlink:href="#sade_B7g5yrf-2RVvYcS_pad-39" x="2100" y="2774.61"/><use xlink:href="#sade_B7g5yrf-2RVvYcS_pad-39" x="2100" y="2474.61"/><use xlink:href="#sade_B7g5yrf-2RVvYcS_pad-39" x="2100" y="2624.61"/><use xlink:href="#sade_B7g5yrf-2RVvYcS_pad-39" x="2100" y="3224.61"/><use xlink:href="#sade_B7g5yrf-2RVvYcS_pad-39" x="2100" y="3074.61"/><use xlink:href="#sade_B7g5yrf-2RVvYcS_pad-39" x="2100" y="3374.61"/><use xlink:href="#sade_B7g5yrf-2RVvYcS_pad-39" x="2100" y="3524.61"/><use xlink:href="#sade_B7g5yrf-2RVvYcS_pad-40" x="350" y="1358.07"/><use xlink:href="#sade_B7g5yrf-2RVvYcS_pad-40" x="350" y="2341.93"/></g></svg>