<svg version="1.1" xmlns="http://www.w3.org/2000/svg" xmlns:xlink="http://www.w3.org/1999/xlink" stroke-linecap="round" stroke-linejoin="round" stroke-width="0" fill-rule="evenodd" width="2.3in" height="4in" viewBox="0 0 2300 4000" id="v3CILQZ4D1wtpaF-7aLo"><g transform="translate(0,4000) scale(1,-1)" fill="currentColor" stroke="currentColor"><path d="M 2300 0 2300 4000 0 4000 0 0 2300 0 M 2292.01 743.31 2292.01 1200 M 2295.04 60.04 2295.04 689.96 M 5 2725 5 3181.69 M 5 3325 5 3781.69 M 2282.01 795 2272.17 795 2272.17 799.92 2273.81 801.56 2277.09 801.56 2278.73 799.92 2278.73 795 M 2273.81 811.4 2272.17 809.76 2272.17 806.48 2273.81 804.84 2280.37 804.84 2282.01 806.48 2282.01 809.76 2280.37 811.4 M 2272.17 814.68 2282.01 814.68 2282.01 819.6 2280.37 821.24 2278.73 821.24 2277.09 819.6 2277.09 814.68 M 2277.09 819.6 2275.45 821.24 2273.81 821.24 2272.17 819.6 2272.17 814.68 M 2272.17 840.92 2272.17 834.36 2282.01 834.36 2282.01 840.92 M 2277.09 834.36 2277.09 837.64 M 2272.17 850.76 2282.01 850.76 2282.01 845.84 2280.37 844.2 2277.09 844.2 2275.45 845.84 2275.45 850.76 M 2285.29 857.32 2285.29 858.96 2283.65 860.59 2275.45 860.59 2275.45 855.68 2277.09 854.04 2280.37 854.04 2282.01 855.68 2282.01 860.59 M 2282.01 868.79 2282.01 865.51 2280.37 863.87 2277.09 863.87 2275.45 865.51 2275.45 868.79 2277.09 870.43 2278.73 870.43 2278.73 863.87 M 15 3130 24.84 3130 24.84 3125.08 23.2 3123.44 19.92 3123.44 18.28 3125.08 18.28 3130 M 23.2 3113.6 24.84 3115.24 24.84 3118.52 23.2 3120.16 16.64 3120.16 15 3118.52 15 3115.24 16.64 3113.6 M 24.84 3110.32 15 3110.32 15 3105.4 16.64 3103.76 18.28 3103.76 19.92 3105.4 19.92 3110.32 M 19.92 3105.4 21.56 3103.76 23.2 3103.76 24.84 3105.4 24.84 3110.32 M 24.84 3084.08 24.84 3090.64 15 3090.64 15 3084.08 M 19.92 3090.64 19.92 3087.36 M 24.84 3074.24 15 3074.24 15 3079.16 16.64 3080.8 19.92 3080.8 21.56 3079.16 21.56 3074.24 M 11.72 3067.68 11.72 3066.04 13.36 3064.4 21.56 3064.4 21.56 3069.32 19.92 3070.96 16.64 3070.96 15 3069.32 15 3064.4 M 15 3056.21 15 3059.48 16.64 3061.13 19.92 3061.13 21.56 3059.48 21.56 3056.21 19.92 3054.56 18.28 3054.56 18.28 3061.13 M 15 3730 24.84 3730 24.84 3725.08 23.2 3723.44 19.92 3723.44 18.28 3725.08 18.28 3730 M 23.2 3713.6 24.84 3715.24 24.84 3718.52 23.2 3720.16 16.64 3720.16 15 3718.52 15 3715.24 16.64 3713.6 M 24.84 3710.32 15 3710.32 15 3705.4 16.64 3703.76 18.28 3703.76 19.92 3705.4 19.92 3710.32 M 19.92 3705.4 21.56 3703.76 23.2 3703.76 24.84 3705.4 24.84 3710.32 M 24.84 3684.08 24.84 3690.64 15 3690.64 15 3684.08 M 19.92 3690.64 19.92 3687.36 M 24.84 3674.24 15 3674.24 15 3679.16 16.64 3680.8 19.92 3680.8 21.56 3679.16 21.56 3674.24 M 11.72 3667.68 11.72 3666.04 13.36 3664.41 21.56 3664.41 21.56 3669.32 19.92 3670.96 16.64 3670.96 15 3669.32 15 3664.41 M 15 3656.2 15 3659.49 16.64 3661.12 19.92 3661.12 21.56 3659.49 21.56 3656.2 19.92 3654.57 18.28 3654.57 18.28 3661.12 M 2271.42 638.78 2281.26 638.78 2281.26 633.86 2279.62 632.22 2276.34 632.22 2274.7 633.86 2274.7 638.78 M 2279.62 622.38 2281.26 624.02 2281.26 627.3 2279.62 628.94 2273.06 628.94 2271.42 627.3 2271.42 624.02 2273.06 622.38 M 2281.26 619.1 2271.42 619.1 2271.42 614.18 2273.06 612.54 2274.7 612.54 2276.34 614.18 2276.34 619.1 M 2276.34 614.18 2277.98 612.54 2279.62 612.54 2281.26 614.18 2281.26 619.1 M 2281.26 592.86 2281.26 599.42 2271.42 599.42 2271.42 592.86 M 2276.34 599.42 2276.34 596.14 M 2281.26 583.02 2271.42 583.02 2271.42 587.94 2273.06 589.58 2276.34 589.58 2277.98 587.94 2277.98 583.02 M 2268.14 576.46 2268.14 574.82 2269.78 573.18 2277.98 573.18 2277.98 578.1 2276.34 579.74 2273.06 579.74 2271.42 578.1 2271.42 573.18 M 2271.42 564.98 2271.42 568.26 2273.06 569.9 2276.34 569.9 2277.98 568.26 2277.98 564.98 2276.34 563.35 2274.7 563.35 2274.7 569.9" fill="none" stroke-width="10"/></g></svg>